<svg width="22" height="26" viewBox="0 0 22 26" fill="none" xmlns="http://www.w3.org/2000/svg">
<rect width="22" height="26" fill="#E5E5E5"/>
<g clip-path="url(#clip0_0_1)">
<rect width="375" height="4081" transform="translate(-328 -24)" fill="white"/>
<rect x="-328" y="-24" width="375" height="436" fill="#9C91E0"/>
<circle cx="19.5" cy="4.5" r="4.5" fill="#FF7D4E"/>
<path fill-rule="evenodd" clip-rule="evenodd" d="M13.1998 0.429299C12.5196 0.152613 11.775 0 10.9947 0C7.9009 0 5.36027 2.40703 5.19124 5.43359H3.3165C2.29717 5.43359 1.45713 6.2207 1.39566 7.22617L0.00241242 24.0906V24.116C-0.0231987 24.6035 0.156079 25.0859 0.494147 25.4414C0.832214 25.7969 1.3137 26 1.80544 26H20.1943C20.686 26 21.1624 25.7969 21.5056 25.4414C21.8385 25.0859 22.0229 24.6035 21.9973 24.116V24.1008L20.9824 11.8535C20.5032 11.9496 20.0075 12 19.5 12C19.3815 12 19.2637 11.9973 19.1466 11.9918L20.1482 24.1719H1.84642L3.23966 7.36328V7.33789C3.23966 7.29727 3.27552 7.26172 3.32162 7.26172H12.5248C12.2959 6.68409 12.1367 6.07126 12.0575 5.43359H7.04036C7.2094 3.41758 8.92022 1.82812 10.9947 1.82812C11.4889 1.82812 11.962 1.91789 12.3984 2.08181C12.5982 1.49488 12.8687 0.940656 13.1998 0.429299Z" fill="white"/>
</g>
<defs>
<clipPath id="clip0_0_1">
<rect width="375" height="4081" fill="white" transform="translate(-328 -24)"/>
</clipPath>
</defs>
</svg>
