<svg width="375" height="220" viewBox="0 0 375 220" fill="none" xmlns="http://www.w3.org/2000/svg">
<g opacity="0.1">
<path d="M68.4537 -106.626C68.4537 -171.936 121.82 -225 187.501 -225C253.183 -225 306.549 -171.936 306.549 -106.626V-37.2351H238.131V-106.626C238.131 -134.383 215.416 -156.969 187.501 -156.969C159.587 -156.969 136.872 -134.383 136.872 -106.626V-37.2351H68.4537V-106.626Z" fill="#DAD3FF"/>
<path d="M306.569 -37.2351V32.5468C306.569 98.2238 253.193 151.586 187.5 151.586C121.807 151.586 68.4307 98.2238 68.4307 32.5468V-37.2351H0V32.5468C0 135.988 84.0328 220 187.5 220C290.967 220 375 135.988 375 32.5468V-37.2351H306.569Z" fill="#DAD3FF"/>
<path d="M136.904 -37.2351H238.094V32.7772C238.094 60.7822 215.395 83.5705 187.499 83.5705C159.603 83.5705 136.904 60.7822 136.904 32.7772V-37.2351Z" fill="#DAD3FF"/>
</g>
</svg>
