<svg width="99" height="23" viewBox="0 0 99 23" fill="none" xmlns="http://www.w3.org/2000/svg">
<path d="M10.9956 1.98253C13.9333 1.98253 14.2782 1.99563 15.4393 2.04803C16.5131 2.09607 17.0937 2.27511 17.4821 2.42795C17.9972 2.62882 18.3639 2.86463 18.748 3.24891C19.1321 3.63319 19.3722 4 19.5687 4.51528C19.7171 4.90393 19.9004 5.48472 19.9484 6.55895C20.0008 7.72052 20.0139 8.0655 20.0139 11.0044C20.0139 13.9432 20.0008 14.2882 19.9484 15.4498C19.9004 16.524 19.7214 17.1048 19.5687 17.4935C19.3679 18.0087 19.1321 18.3755 18.748 18.7598C18.3639 19.1441 17.9972 19.3843 17.4821 19.5808C17.0937 19.7293 16.5131 19.9127 15.4393 19.9607C14.2782 20.0131 13.9333 20.0262 10.9956 20.0262C8.05794 20.0262 7.7131 20.0131 6.55198 19.9607C5.47818 19.9127 4.89762 19.7336 4.50913 19.5808C3.99405 19.3799 3.62738 19.1441 3.24325 18.7598C2.85913 18.3755 2.61905 18.0087 2.42262 17.4935C2.27421 17.1048 2.09087 16.524 2.04286 15.4498C1.99048 14.2882 1.97738 13.9432 1.97738 11.0044C1.97738 8.0655 1.99048 7.72052 2.04286 6.55895C2.09087 5.48472 2.26984 4.90393 2.42262 4.51528C2.62341 4 2.85913 3.63319 3.24325 3.24891C3.62738 2.86463 3.99405 2.62445 4.50913 2.42795C4.89762 2.27948 5.47818 2.09607 6.55198 2.04803C7.7131 1.99127 8.0623 1.98253 10.9956 1.98253ZM10.9956 0C8.00992 0 7.63452 0.0131004 6.46032 0.0655022C5.29048 0.117904 4.49167 0.305677 3.79325 0.576419C3.06865 0.855895 2.45754 1.23581 1.84643 1.84716C1.23532 2.45852 0.859921 3.07424 0.57619 3.79476C0.305556 4.49345 0.117857 5.29258 0.0654762 6.46725C0.0130952 7.63755 0 8.0131 0 11C0 13.9869 0.0130952 14.3624 0.0654762 15.5371C0.117857 16.7074 0.305556 17.5065 0.57619 18.2096C0.855556 18.9345 1.23532 19.5459 1.84643 20.1572C2.45754 20.7686 3.07302 21.1441 3.79325 21.4279C4.49167 21.6987 5.29048 21.8865 6.46468 21.9389C7.63889 21.9913 8.00992 22.0044 11 22.0044C13.9901 22.0044 14.3611 21.9913 15.5353 21.9389C16.7052 21.8865 17.504 21.6987 18.2067 21.4279C18.9314 21.1485 19.5425 20.7686 20.1536 20.1572C20.7647 19.5459 21.1401 18.9301 21.4238 18.2096C21.6944 17.5109 21.8821 16.7118 21.9345 15.5371C21.9869 14.3624 22 13.9913 22 11C22 8.00873 21.9869 7.63755 21.9345 6.46288C21.8821 5.29258 21.6944 4.49345 21.4238 3.79039C21.1444 3.0655 20.7647 2.45415 20.1536 1.84279C19.5425 1.23144 18.927 0.855895 18.2067 0.572052C17.5083 0.30131 16.7095 0.113537 15.5353 0.0611354C14.3567 0.0131004 13.9813 0 10.9956 0Z" fill="#D4D3D1"/>
<path d="M10.9961 5.35352C7.8794 5.35352 5.34766 7.8819 5.34766 11.0042C5.34766 14.1264 7.87503 16.6548 10.9961 16.6548C14.1171 16.6548 16.6445 14.1264 16.6445 11.0042C16.6445 7.8819 14.1171 5.35352 10.9961 5.35352ZM10.9961 14.6679C8.97067 14.6679 7.3294 13.026 7.3294 10.9998C7.3294 8.9736 8.97067 7.33168 10.9961 7.33168C13.0215 7.33168 14.6627 8.9736 14.6627 10.9998C14.6627 13.026 13.0215 14.6679 10.9961 14.6679Z" fill="#D4D3D1"/>
<path d="M16.8671 6.44517C17.5951 6.44517 18.1853 5.85474 18.1853 5.12639C18.1853 4.39805 17.5951 3.80762 16.8671 3.80762C16.139 3.80762 15.5488 4.39805 15.5488 5.12639C15.5488 5.85474 16.139 6.44517 16.8671 6.44517Z" fill="#D4D3D1"/>
<path opacity="0.5" d="M33.374 15V5.00586H34.5361V15H33.374ZM42.2402 15V10.1533C42.2402 9.54264 42.1012 9.08691 41.8232 8.78613C41.5452 8.48535 41.11 8.33496 40.5176 8.33496C39.7337 8.33496 39.1595 8.54688 38.7949 8.9707C38.4303 9.39453 38.248 10.0941 38.248 11.0693V15H37.1133V7.50781H38.0361L38.2207 8.5332H38.2754C38.5078 8.16406 38.8337 7.87923 39.2529 7.67871C39.6722 7.47363 40.1393 7.37109 40.6543 7.37109C41.5566 7.37109 42.2357 7.58984 42.6914 8.02734C43.1471 8.46029 43.375 9.15527 43.375 10.1123V15H42.2402ZM50.5459 12.9561C50.5459 13.6533 50.2861 14.1911 49.7666 14.5693C49.2471 14.9476 48.5179 15.1367 47.5791 15.1367C46.5856 15.1367 45.8109 14.9795 45.2549 14.665V13.6123C45.6149 13.7946 46 13.9382 46.4102 14.043C46.8249 14.1478 47.2236 14.2002 47.6064 14.2002C48.1989 14.2002 48.6546 14.1068 48.9736 13.9199C49.2926 13.7285 49.4521 13.4391 49.4521 13.0518C49.4521 12.7601 49.3245 12.5117 49.0693 12.3066C48.8187 12.097 48.3265 11.8509 47.5928 11.5684C46.8955 11.3086 46.3988 11.083 46.1025 10.8916C45.8109 10.6956 45.5921 10.4746 45.4463 10.2285C45.305 9.98242 45.2344 9.68848 45.2344 9.34668C45.2344 8.736 45.4827 8.25521 45.9795 7.9043C46.4762 7.54883 47.1576 7.37109 48.0234 7.37109C48.8301 7.37109 49.6185 7.53516 50.3887 7.86328L49.9854 8.78613C49.2334 8.47624 48.5521 8.32129 47.9414 8.32129C47.4036 8.32129 46.998 8.4056 46.7246 8.57422C46.4512 8.74284 46.3145 8.97526 46.3145 9.27148C46.3145 9.47201 46.3646 9.6429 46.4648 9.78418C46.5697 9.92546 46.736 10.0599 46.9639 10.1875C47.1917 10.3151 47.6292 10.4997 48.2764 10.7412C49.165 11.0648 49.7643 11.3906 50.0742 11.7188C50.3887 12.0469 50.5459 12.4593 50.5459 12.9561ZM54.8184 14.2002C55.0189 14.2002 55.2126 14.1865 55.3994 14.1592C55.5863 14.1273 55.7344 14.0954 55.8438 14.0635V14.9316C55.7207 14.9909 55.5384 15.0387 55.2969 15.0752C55.0599 15.1162 54.8457 15.1367 54.6543 15.1367C53.2051 15.1367 52.4805 14.3734 52.4805 12.8467V8.38965H51.4072V7.84277L52.4805 7.37109L52.959 5.77148H53.6152V7.50781H55.7891V8.38965H53.6152V12.7988C53.6152 13.25 53.7223 13.5964 53.9365 13.8379C54.1507 14.0794 54.4447 14.2002 54.8184 14.2002ZM61.9551 15L61.7295 13.9336H61.6748C61.3011 14.403 60.9274 14.722 60.5537 14.8906C60.1846 15.0547 59.722 15.1367 59.166 15.1367C58.4232 15.1367 57.8398 14.9453 57.416 14.5625C56.9967 14.1797 56.7871 13.6351 56.7871 12.9287C56.7871 11.4157 57.9971 10.6227 60.417 10.5498L61.6885 10.5088V10.0439C61.6885 9.45605 61.5609 9.02311 61.3057 8.74512C61.055 8.46257 60.6517 8.32129 60.0957 8.32129C59.4714 8.32129 58.765 8.5127 57.9766 8.89551L57.6279 8.02734C57.9971 7.82682 58.4004 7.6696 58.8379 7.55566C59.2799 7.44173 59.722 7.38477 60.1641 7.38477C61.0573 7.38477 61.7181 7.58301 62.1465 7.97949C62.5794 8.37598 62.7959 9.01172 62.7959 9.88672V15H61.9551ZM59.3916 14.2002C60.098 14.2002 60.6517 14.0065 61.0527 13.6191C61.4583 13.2318 61.6611 12.6895 61.6611 11.9922V11.3154L60.5264 11.3633C59.624 11.3952 58.9723 11.5365 58.5713 11.7871C58.1748 12.0332 57.9766 12.4183 57.9766 12.9424C57.9766 13.3525 58.0996 13.6647 58.3457 13.8789C58.5964 14.0931 58.945 14.2002 59.3916 14.2002ZM71.2725 7.50781V8.22559L69.8848 8.38965C70.0124 8.54915 70.1263 8.75879 70.2266 9.01855C70.3268 9.27376 70.377 9.56315 70.377 9.88672C70.377 10.6204 70.1263 11.2061 69.625 11.6436C69.1237 12.0811 68.4355 12.2998 67.5605 12.2998C67.3372 12.2998 67.1276 12.2816 66.9316 12.2451C66.4486 12.5003 66.207 12.8216 66.207 13.209C66.207 13.4141 66.2913 13.5667 66.46 13.667C66.6286 13.7627 66.918 13.8105 67.3281 13.8105H68.6543C69.4655 13.8105 70.0876 13.9814 70.5205 14.3232C70.958 14.665 71.1768 15.1618 71.1768 15.8135C71.1768 16.6429 70.8441 17.2741 70.1787 17.707C69.5133 18.1445 68.5426 18.3633 67.2666 18.3633C66.2868 18.3633 65.5303 18.181 64.9971 17.8164C64.4684 17.4518 64.2041 16.9368 64.2041 16.2715C64.2041 15.8158 64.3499 15.4215 64.6416 15.0889C64.9333 14.7562 65.3434 14.5306 65.8721 14.4121C65.6807 14.3255 65.5189 14.1911 65.3867 14.0088C65.2591 13.8265 65.1953 13.6146 65.1953 13.373C65.1953 13.0996 65.2682 12.8604 65.4141 12.6553C65.5599 12.4502 65.79 12.252 66.1045 12.0605C65.7171 11.901 65.4004 11.6299 65.1543 11.2471C64.9128 10.8643 64.792 10.4268 64.792 9.93457C64.792 9.11426 65.0381 8.48307 65.5303 8.04102C66.0225 7.5944 66.7197 7.37109 67.6221 7.37109C68.014 7.37109 68.3672 7.41667 68.6816 7.50781H71.2725ZM65.2979 16.2578C65.2979 16.6634 65.4688 16.971 65.8105 17.1807C66.1523 17.3903 66.6423 17.4951 67.2803 17.4951C68.2327 17.4951 68.9368 17.3516 69.3926 17.0645C69.8529 16.7819 70.083 16.3968 70.083 15.9092C70.083 15.5036 69.9577 15.221 69.707 15.0615C69.4564 14.9066 68.9847 14.8291 68.292 14.8291H66.9316C66.4167 14.8291 66.0156 14.9521 65.7285 15.1982C65.4414 15.4443 65.2979 15.7975 65.2979 16.2578ZM65.9131 9.90723C65.9131 10.4313 66.0612 10.8278 66.3574 11.0967C66.6536 11.3656 67.0661 11.5 67.5947 11.5C68.7021 11.5 69.2559 10.9622 69.2559 9.88672C69.2559 8.76107 68.6953 8.19824 67.5742 8.19824C67.041 8.19824 66.6309 8.3418 66.3438 8.62891C66.0566 8.91602 65.9131 9.34212 65.9131 9.90723ZM76.2285 7.37109C76.5612 7.37109 76.8597 7.39844 77.124 7.45312L76.9668 8.50586C76.6569 8.4375 76.3835 8.40332 76.1465 8.40332C75.5404 8.40332 75.0208 8.64941 74.5879 9.1416C74.1595 9.63379 73.9453 10.2467 73.9453 10.9805V15H72.8105V7.50781H73.7471L73.877 8.89551H73.9316C74.2096 8.40788 74.5446 8.0319 74.9365 7.76758C75.3285 7.50326 75.7591 7.37109 76.2285 7.37109ZM83.1328 15L82.9072 13.9336H82.8525C82.4788 14.403 82.1051 14.722 81.7314 14.8906C81.3623 15.0547 80.8997 15.1367 80.3438 15.1367C79.6009 15.1367 79.0176 14.9453 78.5938 14.5625C78.1745 14.1797 77.9648 13.6351 77.9648 12.9287C77.9648 11.4157 79.1748 10.6227 81.5947 10.5498L82.8662 10.5088V10.0439C82.8662 9.45605 82.7386 9.02311 82.4834 8.74512C82.2327 8.46257 81.8294 8.32129 81.2734 8.32129C80.6491 8.32129 79.9427 8.5127 79.1543 8.89551L78.8057 8.02734C79.1748 7.82682 79.5781 7.6696 80.0156 7.55566C80.4577 7.44173 80.8997 7.38477 81.3418 7.38477C82.235 7.38477 82.8958 7.58301 83.3242 7.97949C83.7572 8.37598 83.9736 9.01172 83.9736 9.88672V15H83.1328ZM80.5693 14.2002C81.2757 14.2002 81.8294 14.0065 82.2305 13.6191C82.6361 13.2318 82.8389 12.6895 82.8389 11.9922V11.3154L81.7041 11.3633C80.8018 11.3952 80.1501 11.5365 79.749 11.7871C79.3525 12.0332 79.1543 12.4183 79.1543 12.9424C79.1543 13.3525 79.2773 13.6647 79.5234 13.8789C79.7741 14.0931 80.1227 14.2002 80.5693 14.2002ZM95.8682 15V10.126C95.8682 9.52897 95.7406 9.08236 95.4854 8.78613C95.2301 8.48535 94.8337 8.33496 94.2959 8.33496C93.5895 8.33496 93.0677 8.53776 92.7305 8.94336C92.3932 9.34896 92.2246 9.97331 92.2246 10.8164V15H91.0898V10.126C91.0898 9.52897 90.9622 9.08236 90.707 8.78613C90.4518 8.48535 90.0531 8.33496 89.5107 8.33496C88.7998 8.33496 88.278 8.54915 87.9453 8.97754C87.6172 9.40137 87.4531 10.0986 87.4531 11.0693V15H86.3184V7.50781H87.2412L87.4258 8.5332H87.4805C87.6947 8.16862 87.9954 7.88379 88.3828 7.67871C88.7747 7.47363 89.2122 7.37109 89.6953 7.37109C90.8665 7.37109 91.6322 7.79492 91.9922 8.64258H92.0469C92.2702 8.25065 92.5938 7.94076 93.0176 7.71289C93.4414 7.48503 93.9245 7.37109 94.4668 7.37109C95.3145 7.37109 95.9479 7.58984 96.3672 8.02734C96.791 8.46029 97.0029 9.15527 97.0029 10.1123V15H95.8682Z" fill="black"/>
</svg>
