<svg width="280" height="56" viewBox="0 0 280 56" fill="none" xmlns="http://www.w3.org/2000/svg">
<path d="M0 12C0 5.37258 5.37258 0 12 0H268C274.627 0 280 5.37258 280 12V44C280 50.6274 274.627 56 268 56H12C5.37259 56 0 50.6274 0 44V12Z" fill="#FAF8F6"/>
<path fill-rule="evenodd" clip-rule="evenodd" d="M35.702 17.8384C36.5668 16.8011 37.0006 15.6804 37.0006 14.4801V14.4801C37.0006 14.3209 36.9933 14.1605 36.9757 14C36.3733 14.0316 35.7328 14.2161 35.0557 14.5496C34.3771 14.8882 33.8175 15.3127 33.3775 15.8232C32.4963 16.8315 32 18.0646 32 19.2169C32 19.3761 32.0101 19.5277 32.0276 19.6717C33.3963 19.7841 34.6585 19.0716 35.702 17.8384ZM40.3043 35.0232C40.7967 34.3136 41.2218 33.5418 41.5808 32.7033C41.7289 32.3478 41.8681 31.9774 42 31.5907C41.3918 31.333 40.8451 30.97 40.3556 30.5004C39.2754 29.4886 38.7258 28.2143 38.7097 26.6829C38.6921 24.7169 39.5758 23.1843 41.3624 22.0901C40.3644 20.6561 38.8636 19.8601 36.8659 19.6972C36.1287 19.6339 35.2288 19.7945 34.1625 20.1823C33.035 20.6006 32.3699 20.8103 32.1737 20.8103C31.9112 20.8103 31.3125 20.6309 30.38 20.2772C29.445 19.9246 28.6925 19.7452 28.1187 19.7452C27.0701 19.7628 26.0963 20.0383 25.1951 20.5791C24.2939 21.1198 23.5738 21.8564 23.0325 22.7901C22.3438 23.9526 22 25.3398 22 26.9482C22 28.3523 22.255 29.8026 22.7637 31.3004C23.2388 32.687 23.8451 33.9033 24.5826 34.9521C25.27 35.9343 25.8438 36.6276 26.3025 37.0321C27.0213 37.7076 27.7413 38.0291 28.4637 37.998C28.9387 37.9817 29.56 37.8172 30.3312 37.5017C31.1013 37.1876 31.8212 37.0321 32.4925 37.0321C33.1325 37.0321 33.8325 37.1876 34.5942 37.5017C35.3534 37.8172 36.0056 37.9728 36.5464 37.9728C37.2997 37.955 38.0032 37.6424 38.6598 37.0321C39.0834 36.6602 39.633 35.9906 40.3043 35.0232Z" fill="#0E0410"/>
<path d="M123.636 22.328H125.716L129.764 33H127.524L126.596 30.296H122.628L121.7 33H119.588L123.636 22.328ZM126.02 28.632L124.612 24.488L123.188 28.632H126.02ZM130.78 25.496H132.604L132.652 26.344C132.748 26.2373 132.865 26.1253 133.004 26.008C133.153 25.8907 133.324 25.784 133.516 25.688C133.718 25.592 133.942 25.512 134.188 25.448C134.444 25.384 134.726 25.352 135.036 25.352C135.612 25.352 136.108 25.464 136.524 25.688C136.95 25.912 137.302 26.2107 137.58 26.584C137.857 26.9467 138.065 27.3627 138.204 27.832C138.342 28.3013 138.412 28.7867 138.412 29.288C138.412 29.8747 138.326 30.376 138.156 30.792C137.985 31.208 137.772 31.5707 137.516 31.88C137.089 32.392 136.62 32.7493 136.108 32.952C135.606 33.1547 135.089 33.256 134.556 33.256C134.31 33.256 134.097 33.2453 133.916 33.224C133.745 33.2027 133.585 33.1707 133.436 33.128C133.297 33.096 133.164 33.0533 133.036 33C132.918 32.9573 132.79 32.9093 132.652 32.856V36.2H130.78V25.496ZM132.652 31.16C133.025 31.4693 133.59 31.624 134.348 31.624C134.689 31.624 134.993 31.56 135.26 31.432C135.526 31.2933 135.75 31.1173 135.932 30.904C136.124 30.68 136.268 30.4293 136.364 30.152C136.46 29.8747 136.508 29.5867 136.508 29.288C136.508 28.968 136.47 28.6693 136.396 28.392C136.332 28.1147 136.22 27.8747 136.06 27.672C135.91 27.4587 135.713 27.2933 135.468 27.176C135.222 27.048 134.918 26.984 134.556 26.984C134.268 26.984 134.006 27.048 133.772 27.176C133.537 27.2933 133.334 27.448 133.164 27.64C133.004 27.832 132.876 28.0453 132.78 28.28C132.694 28.504 132.652 28.7227 132.652 28.936V31.16ZM139.92 25.496H141.744L141.792 26.344C141.888 26.2373 142.006 26.1253 142.144 26.008C142.294 25.8907 142.464 25.784 142.656 25.688C142.859 25.592 143.083 25.512 143.328 25.448C143.584 25.384 143.867 25.352 144.176 25.352C144.752 25.352 145.248 25.464 145.664 25.688C146.091 25.912 146.443 26.2107 146.72 26.584C146.998 26.9467 147.206 27.3627 147.344 27.832C147.483 28.3013 147.552 28.7867 147.552 29.288C147.552 29.8747 147.467 30.376 147.296 30.792C147.126 31.208 146.912 31.5707 146.656 31.88C146.23 32.392 145.76 32.7493 145.248 32.952C144.747 33.1547 144.23 33.256 143.696 33.256C143.451 33.256 143.238 33.2453 143.056 33.224C142.886 33.2027 142.726 33.1707 142.576 33.128C142.438 33.096 142.304 33.0533 142.176 33C142.059 32.9573 141.931 32.9093 141.792 32.856V36.2H139.92V25.496ZM141.792 31.16C142.166 31.4693 142.731 31.624 143.488 31.624C143.83 31.624 144.134 31.56 144.4 31.432C144.667 31.2933 144.891 31.1173 145.072 30.904C145.264 30.68 145.408 30.4293 145.504 30.152C145.6 29.8747 145.648 29.5867 145.648 29.288C145.648 28.968 145.611 28.6693 145.536 28.392C145.472 28.1147 145.36 27.8747 145.2 27.672C145.051 27.4587 144.854 27.2933 144.608 27.176C144.363 27.048 144.059 26.984 143.696 26.984C143.408 26.984 143.147 27.048 142.912 27.176C142.678 27.2933 142.475 27.448 142.304 27.64C142.144 27.832 142.016 28.0453 141.92 28.28C141.835 28.504 141.792 28.7227 141.792 28.936V31.16ZM149.061 22.328H150.949V33H149.061V22.328ZM159.867 31.912C159.835 31.944 159.744 32.0347 159.595 32.184C159.456 32.3227 159.248 32.472 158.971 32.632C158.704 32.792 158.357 32.936 157.931 33.064C157.515 33.192 157.013 33.256 156.427 33.256C155.829 33.256 155.285 33.1547 154.795 32.952C154.304 32.7493 153.883 32.472 153.531 32.12C153.189 31.7573 152.923 31.3253 152.731 30.824C152.549 30.3227 152.459 29.768 152.459 29.16C152.459 28.6053 152.549 28.0933 152.731 27.624C152.923 27.144 153.184 26.728 153.515 26.376C153.856 26.024 154.256 25.7467 154.715 25.544C155.184 25.3413 155.701 25.24 156.267 25.24C156.949 25.24 157.525 25.368 157.995 25.624C158.475 25.8693 158.859 26.1947 159.147 26.6C159.435 27.0053 159.643 27.464 159.771 27.976C159.899 28.488 159.963 29.0107 159.963 29.544V29.816H154.363C154.363 30.0933 154.421 30.344 154.539 30.568C154.667 30.792 154.827 30.984 155.019 31.144C155.221 31.304 155.445 31.4267 155.691 31.512C155.947 31.5973 156.197 31.64 156.443 31.64C156.805 31.64 157.12 31.608 157.387 31.544C157.664 31.4693 157.899 31.3893 158.091 31.304C158.283 31.208 158.437 31.112 158.555 31.016C158.683 30.9093 158.779 30.824 158.843 30.76L159.867 31.912ZM158.027 28.456C158.027 28.264 157.989 28.072 157.915 27.88C157.84 27.688 157.728 27.5173 157.579 27.368C157.44 27.208 157.259 27.08 157.035 26.984C156.811 26.8773 156.555 26.824 156.267 26.824C155.957 26.824 155.68 26.8773 155.435 26.984C155.2 27.08 155.003 27.208 154.843 27.368C154.683 27.5173 154.56 27.688 154.475 27.88C154.389 28.072 154.347 28.264 154.347 28.456H158.027Z" fill="black"/>
</svg>
