<svg width="335" height="56" viewBox="0 0 335 56" fill="none" xmlns="http://www.w3.org/2000/svg">
<path d="M0 12C0 5.37258 5.37258 0 12 0H323C329.627 0 335 5.37258 335 12V44C335 50.6274 329.627 56 323 56H12C5.37259 56 0 50.6274 0 44V12Z" fill="#FAF8F6"/>
<path fill-rule="evenodd" clip-rule="evenodd" d="M35.702 17.8384C36.5668 16.8011 37.0006 15.6804 37.0006 14.4801C37.0006 14.3209 36.9933 14.1605 36.9757 14C36.3733 14.0316 35.7328 14.2161 35.0557 14.5496C34.3771 14.8882 33.8175 15.3127 33.3775 15.8232C32.4963 16.8315 32 18.0646 32 19.2169C32 19.3761 32.0101 19.5277 32.0276 19.6717C33.3963 19.7841 34.6585 19.0716 35.702 17.8384ZM40.3043 35.0232C40.7967 34.3136 41.2218 33.5418 41.5808 32.7033C41.7289 32.3478 41.8681 31.9774 42 31.5907C41.3918 31.333 40.8451 30.97 40.3556 30.5004C39.2754 29.4886 38.7258 28.2142 38.7097 26.6829C38.6921 24.7169 39.5758 23.1843 41.3624 22.0901C40.3644 20.6561 38.8636 19.8601 36.8659 19.6972C36.1287 19.6339 35.2288 19.7945 34.1625 20.1823C33.035 20.6006 32.3699 20.8103 32.1737 20.8103C31.9112 20.8103 31.3125 20.6309 30.38 20.2772C29.445 19.9246 28.6925 19.7452 28.1187 19.7452C27.0701 19.7628 26.0963 20.0383 25.1951 20.5791C24.2939 21.1198 23.5738 21.8564 23.0325 22.7901C22.3438 23.9526 22 25.3398 22 26.9482C22 28.3523 22.255 29.8026 22.7637 31.3004C23.2388 32.687 23.8451 33.9033 24.5826 34.9521C25.27 35.9343 25.8438 36.6276 26.3025 37.0321C27.0213 37.7076 27.7413 38.0291 28.4637 37.998C28.9387 37.9817 29.56 37.8172 30.3312 37.5017C31.1013 37.1876 31.8212 37.0321 32.4925 37.0321C33.1325 37.0321 33.8325 37.1876 34.5942 37.5017C35.3534 37.8172 36.0056 37.9728 36.5464 37.9728C37.2997 37.955 38.0032 37.6424 38.6598 37.0321C39.0834 36.6602 39.633 35.9906 40.3043 35.0232Z" fill="#0E0410"/>
<path d="M151.136 22.328H153.216L157.264 33H155.024L154.096 30.296H150.128L149.2 33H147.088L151.136 22.328ZM153.52 28.632L152.112 24.488L150.688 28.632H153.52ZM158.28 25.496H160.104L160.152 26.344C160.248 26.2373 160.365 26.1253 160.504 26.008C160.653 25.8907 160.824 25.784 161.016 25.688C161.218 25.592 161.442 25.512 161.688 25.448C161.944 25.384 162.226 25.352 162.536 25.352C163.112 25.352 163.608 25.464 164.024 25.688C164.45 25.912 164.802 26.2107 165.08 26.584C165.357 26.9467 165.565 27.3627 165.704 27.832C165.842 28.3013 165.912 28.7867 165.912 29.288C165.912 29.8747 165.826 30.376 165.656 30.792C165.485 31.208 165.272 31.5707 165.016 31.88C164.589 32.392 164.12 32.7493 163.608 32.952C163.106 33.1547 162.589 33.256 162.056 33.256C161.81 33.256 161.597 33.2453 161.416 33.224C161.245 33.2027 161.085 33.1707 160.936 33.128C160.797 33.096 160.664 33.0533 160.536 33C160.418 32.9573 160.29 32.9093 160.152 32.856V36.2H158.28V25.496ZM160.152 31.16C160.525 31.4693 161.09 31.624 161.848 31.624C162.189 31.624 162.493 31.56 162.76 31.432C163.026 31.2933 163.25 31.1173 163.432 30.904C163.624 30.68 163.768 30.4293 163.864 30.152C163.96 29.8747 164.008 29.5867 164.008 29.288C164.008 28.968 163.97 28.6693 163.896 28.392C163.832 28.1147 163.72 27.8747 163.56 27.672C163.41 27.4587 163.213 27.2933 162.968 27.176C162.722 27.048 162.418 26.984 162.056 26.984C161.768 26.984 161.506 27.048 161.272 27.176C161.037 27.2933 160.834 27.448 160.664 27.64C160.504 27.832 160.376 28.0453 160.28 28.28C160.194 28.504 160.152 28.7227 160.152 28.936V31.16ZM167.42 25.496H169.244L169.292 26.344C169.388 26.2373 169.506 26.1253 169.644 26.008C169.794 25.8907 169.964 25.784 170.156 25.688C170.359 25.592 170.583 25.512 170.828 25.448C171.084 25.384 171.367 25.352 171.676 25.352C172.252 25.352 172.748 25.464 173.164 25.688C173.591 25.912 173.943 26.2107 174.22 26.584C174.498 26.9467 174.706 27.3627 174.844 27.832C174.983 28.3013 175.052 28.7867 175.052 29.288C175.052 29.8747 174.967 30.376 174.796 30.792C174.626 31.208 174.412 31.5707 174.156 31.88C173.73 32.392 173.26 32.7493 172.748 32.952C172.247 33.1547 171.73 33.256 171.196 33.256C170.951 33.256 170.738 33.2453 170.556 33.224C170.386 33.2027 170.226 33.1707 170.076 33.128C169.938 33.096 169.804 33.0533 169.676 33C169.559 32.9573 169.431 32.9093 169.292 32.856V36.2H167.42V25.496ZM169.292 31.16C169.666 31.4693 170.231 31.624 170.988 31.624C171.33 31.624 171.634 31.56 171.9 31.432C172.167 31.2933 172.391 31.1173 172.572 30.904C172.764 30.68 172.908 30.4293 173.004 30.152C173.1 29.8747 173.148 29.5867 173.148 29.288C173.148 28.968 173.111 28.6693 173.036 28.392C172.972 28.1147 172.86 27.8747 172.7 27.672C172.551 27.4587 172.354 27.2933 172.108 27.176C171.863 27.048 171.559 26.984 171.196 26.984C170.908 26.984 170.647 27.048 170.412 27.176C170.178 27.2933 169.975 27.448 169.804 27.64C169.644 27.832 169.516 28.0453 169.42 28.28C169.335 28.504 169.292 28.7227 169.292 28.936V31.16ZM176.561 22.328H178.449V33H176.561V22.328ZM187.367 31.912C187.335 31.944 187.244 32.0347 187.095 32.184C186.956 32.3227 186.748 32.472 186.471 32.632C186.204 32.792 185.857 32.936 185.431 33.064C185.015 33.192 184.513 33.256 183.927 33.256C183.329 33.256 182.785 33.1547 182.295 32.952C181.804 32.7493 181.383 32.472 181.031 32.12C180.689 31.7573 180.423 31.3253 180.231 30.824C180.049 30.3227 179.959 29.768 179.959 29.16C179.959 28.6053 180.049 28.0933 180.231 27.624C180.423 27.144 180.684 26.728 181.015 26.376C181.356 26.024 181.756 25.7467 182.215 25.544C182.684 25.3413 183.201 25.24 183.767 25.24C184.449 25.24 185.025 25.368 185.495 25.624C185.975 25.8693 186.359 26.1947 186.647 26.6C186.935 27.0053 187.143 27.464 187.271 27.976C187.399 28.488 187.463 29.0107 187.463 29.544V29.816H181.863C181.863 30.0933 181.921 30.344 182.039 30.568C182.167 30.792 182.327 30.984 182.519 31.144C182.721 31.304 182.945 31.4267 183.191 31.512C183.447 31.5973 183.697 31.64 183.943 31.64C184.305 31.64 184.62 31.608 184.887 31.544C185.164 31.4693 185.399 31.3893 185.591 31.304C185.783 31.208 185.937 31.112 186.055 31.016C186.183 30.9093 186.279 30.824 186.343 30.76L187.367 31.912ZM185.527 28.456C185.527 28.264 185.489 28.072 185.415 27.88C185.34 27.688 185.228 27.5173 185.079 27.368C184.94 27.208 184.759 27.08 184.535 26.984C184.311 26.8773 184.055 26.824 183.767 26.824C183.457 26.824 183.18 26.8773 182.935 26.984C182.7 27.08 182.503 27.208 182.343 27.368C182.183 27.5173 182.06 27.688 181.975 27.88C181.889 28.072 181.847 28.264 181.847 28.456H185.527Z" fill="black"/>
</svg>
