<svg width="124" height="22" viewBox="0 0 124 22" fill="none" xmlns="http://www.w3.org/2000/svg">
<path fill-rule="evenodd" clip-rule="evenodd" d="M7.53624 19L9 17.5433L2.92751 11.5L9 5.45672L7.53624 4L0 11.5L7.53624 19Z" fill="black"/>
<path d="M25.5078 5.57812H28.8984C30.4714 5.57812 31.6068 5.80729 32.3047 6.26562C33.0078 6.72396 33.3594 7.44792 33.3594 8.4375C33.3594 9.10417 33.1875 9.65885 32.8438 10.1016C32.5 10.5443 32.0052 10.8229 31.3594 10.9375V11.0156C32.1615 11.1667 32.75 11.4661 33.125 11.9141C33.5052 12.3568 33.6953 12.9583 33.6953 13.7188C33.6953 14.7448 33.3359 15.5495 32.6172 16.1328C31.9036 16.7109 30.9089 17 29.6328 17H25.5078V5.57812ZM27.375 10.2969H29.1719C29.9531 10.2969 30.5234 10.1745 30.8828 9.92969C31.2422 9.67969 31.4219 9.25781 31.4219 8.66406C31.4219 8.1276 31.2266 7.73958 30.8359 7.5C30.4505 7.26042 29.8359 7.14062 28.9922 7.14062H27.375V10.2969ZM27.375 11.8125V15.4297H29.3594C30.1406 15.4297 30.7292 15.2812 31.125 14.9844C31.526 14.6823 31.7266 14.2083 31.7266 13.5625C31.7266 12.9688 31.5234 12.5286 31.1172 12.2422C30.7109 11.9557 30.0938 11.8125 29.2656 11.8125H27.375ZM41.2812 17L40.9141 15.7969H40.8516C40.4349 16.3229 40.0156 16.6823 39.5938 16.875C39.1719 17.0625 38.6302 17.1562 37.9688 17.1562C37.1198 17.1562 36.4557 16.9271 35.9766 16.4688C35.5026 16.0104 35.2656 15.362 35.2656 14.5234C35.2656 13.6328 35.5964 12.9609 36.2578 12.5078C36.9193 12.0547 37.9271 11.8073 39.2812 11.7656L40.7734 11.7188V11.2578C40.7734 10.7057 40.6432 10.2943 40.3828 10.0234C40.1276 9.7474 39.7292 9.60938 39.1875 9.60938C38.7448 9.60938 38.3203 9.67448 37.9141 9.80469C37.5078 9.9349 37.1172 10.0885 36.7422 10.2656L36.1484 8.95312C36.6172 8.70833 37.1302 8.52344 37.6875 8.39844C38.2448 8.26823 38.7708 8.20312 39.2656 8.20312C40.3646 8.20312 41.1927 8.44271 41.75 8.92188C42.3125 9.40104 42.5938 10.1536 42.5938 11.1797V17H41.2812ZM38.5469 15.75C39.2135 15.75 39.7474 15.5651 40.1484 15.1953C40.5547 14.8203 40.7578 14.2969 40.7578 13.625V12.875L39.6484 12.9219C38.7839 12.9531 38.1536 13.099 37.7578 13.3594C37.3672 13.6146 37.1719 14.0078 37.1719 14.5391C37.1719 14.9245 37.2865 15.224 37.5156 15.4375C37.7448 15.6458 38.0885 15.75 38.5469 15.75ZM48.6406 17.1562C47.3333 17.1562 46.3385 16.776 45.6562 16.0156C44.9792 15.25 44.6406 14.1536 44.6406 12.7266C44.6406 11.2734 44.9948 10.1562 45.7031 9.375C46.4167 8.59375 47.4453 8.20312 48.7891 8.20312C49.7005 8.20312 50.5208 8.3724 51.25 8.71094L50.6953 10.1875C49.9193 9.88542 49.2786 9.73438 48.7734 9.73438C47.2786 9.73438 46.5312 10.7266 46.5312 12.7109C46.5312 13.6797 46.7161 14.4089 47.0859 14.8984C47.4609 15.3828 48.0078 15.625 48.7266 15.625C49.5443 15.625 50.3177 15.4219 51.0469 15.0156V16.6172C50.7188 16.8099 50.3672 16.9479 49.9922 17.0312C49.6224 17.1146 49.1719 17.1562 48.6406 17.1562ZM54.8516 12.4375L55.8906 11.1406L58.5 8.35938H60.6172L57.1406 12.0703L60.8359 17H58.6797L55.9062 13.2109L54.8984 14.0391V17H53.0781V4.84375H54.8984V10.7734L54.8047 12.4375H54.8516ZM69.6094 15.6719C70.0573 15.6719 70.5052 15.6016 70.9531 15.4609V16.8438C70.75 16.9323 70.487 17.0052 70.1641 17.0625C69.8464 17.125 69.5156 17.1562 69.1719 17.1562C67.4323 17.1562 66.5625 16.2396 66.5625 14.4062V9.75H65.3828V8.9375L66.6484 8.26562L67.2734 6.4375H68.4062V8.35938H70.8672V9.75H68.4062V14.375C68.4062 14.8177 68.5156 15.1458 68.7344 15.3594C68.9583 15.5677 69.25 15.6719 69.6094 15.6719ZM80.3516 12.6641C80.3516 14.0755 79.9896 15.1771 79.2656 15.9688C78.5417 16.7604 77.5339 17.1562 76.2422 17.1562C75.4349 17.1562 74.7214 16.974 74.1016 16.6094C73.4818 16.2448 73.0052 15.7214 72.6719 15.0391C72.3385 14.3568 72.1719 13.5651 72.1719 12.6641C72.1719 11.263 72.5312 10.1693 73.25 9.38281C73.9688 8.59635 74.9818 8.20312 76.2891 8.20312C77.5391 8.20312 78.5286 8.60677 79.2578 9.41406C79.987 10.2161 80.3516 11.2995 80.3516 12.6641ZM74.0625 12.6641C74.0625 14.6589 74.7995 15.6562 76.2734 15.6562C77.7318 15.6562 78.4609 14.6589 78.4609 12.6641C78.4609 10.6901 77.7266 9.70312 76.2578 9.70312C75.487 9.70312 74.9271 9.95833 74.5781 10.4688C74.2344 10.9792 74.0625 11.7109 74.0625 12.6641ZM92.4297 14.5391C92.4297 15.3828 92.1224 16.0312 91.5078 16.4844C90.8932 16.9323 90.013 17.1562 88.8672 17.1562C87.7161 17.1562 86.7917 16.9818 86.0938 16.6328V15.0469C87.1094 15.5156 88.0547 15.75 88.9297 15.75C90.0599 15.75 90.625 15.4089 90.625 14.7266C90.625 14.5078 90.5625 14.3255 90.4375 14.1797C90.3125 14.0339 90.1068 13.8828 89.8203 13.7266C89.5339 13.5703 89.1354 13.3932 88.625 13.1953C87.6302 12.8099 86.9557 12.4245 86.6016 12.0391C86.2526 11.6536 86.0781 11.1536 86.0781 10.5391C86.0781 9.79948 86.375 9.22656 86.9688 8.82031C87.5677 8.40885 88.3802 8.20312 89.4062 8.20312C90.4219 8.20312 91.3828 8.40885 92.2891 8.82031L91.6953 10.2031C90.763 9.81771 89.9792 9.625 89.3438 9.625C88.375 9.625 87.8906 9.90104 87.8906 10.4531C87.8906 10.724 88.0156 10.9531 88.2656 11.1406C88.5208 11.3281 89.0729 11.5859 89.9219 11.9141C90.6354 12.1901 91.1536 12.4427 91.4766 12.6719C91.7995 12.901 92.0391 13.1667 92.1953 13.4688C92.3516 13.7656 92.4297 14.1224 92.4297 14.5391ZM102.023 17H100.18V11.6875C100.18 11.0208 100.044 10.5234 99.7734 10.1953C99.5078 9.86719 99.0833 9.70312 98.5 9.70312C97.7292 9.70312 97.1615 9.9349 96.7969 10.3984C96.4375 10.8568 96.2578 11.6276 96.2578 12.7109V17H94.4219V4.84375H96.2578V7.92969C96.2578 8.42448 96.2266 8.95312 96.1641 9.51562H96.2812C96.5312 9.09896 96.8776 8.77604 97.3203 8.54688C97.7682 8.31771 98.2891 8.20312 98.8828 8.20312C100.977 8.20312 102.023 9.25781 102.023 11.3672V17ZM112.242 12.6641C112.242 14.0755 111.88 15.1771 111.156 15.9688C110.432 16.7604 109.424 17.1562 108.133 17.1562C107.326 17.1562 106.612 16.974 105.992 16.6094C105.372 16.2448 104.896 15.7214 104.562 15.0391C104.229 14.3568 104.062 13.5651 104.062 12.6641C104.062 11.263 104.422 10.1693 105.141 9.38281C105.859 8.59635 106.872 8.20312 108.18 8.20312C109.43 8.20312 110.419 8.60677 111.148 9.41406C111.878 10.2161 112.242 11.2995 112.242 12.6641ZM105.953 12.6641C105.953 14.6589 106.69 15.6562 108.164 15.6562C109.622 15.6562 110.352 14.6589 110.352 12.6641C110.352 10.6901 109.617 9.70312 108.148 9.70312C107.378 9.70312 106.818 9.95833 106.469 10.4688C106.125 10.9792 105.953 11.7109 105.953 12.6641ZM118.742 17.1562C117.648 17.1562 116.799 16.763 116.195 15.9766H116.086C116.159 16.7057 116.195 17.1484 116.195 17.3047V20.8438H114.359V8.35938H115.844C115.885 8.52083 115.971 8.90625 116.102 9.51562H116.195C116.768 8.64062 117.628 8.20312 118.773 8.20312C119.852 8.20312 120.69 8.59375 121.289 9.375C121.893 10.1562 122.195 11.2526 122.195 12.6641C122.195 14.0755 121.888 15.1771 121.273 15.9688C120.664 16.7604 119.82 17.1562 118.742 17.1562ZM118.297 9.70312C117.568 9.70312 117.034 9.91667 116.695 10.3438C116.362 10.7708 116.195 11.4531 116.195 12.3906V12.6641C116.195 13.7161 116.362 14.4792 116.695 14.9531C117.029 15.4219 117.573 15.6562 118.328 15.6562C118.964 15.6562 119.453 15.3958 119.797 14.875C120.141 14.3542 120.312 13.612 120.312 12.6484C120.312 11.6797 120.141 10.9479 119.797 10.4531C119.458 9.95312 118.958 9.70312 118.297 9.70312Z" fill="black"/>
</svg>
