<svg width="36" height="22" viewBox="0 0 36 22" fill="none" xmlns="http://www.w3.org/2000/svg">
<rect width="36" height="22" rx="4" fill="#D32D2C"/>
<path d="M6.29785 12.9297V11.709H8.91992V12.9297H6.29785ZM14.7744 13.5205H13.915V15H12.4404V13.5205H9.39355V12.4707L12.5234 7.86133H13.915V12.3486H14.7744V13.5205ZM12.4404 12.3486V11.1377C12.4404 10.9359 12.4486 10.6429 12.4648 10.2588C12.4811 9.87467 12.4941 9.65169 12.5039 9.58984H12.4648C12.3444 9.85677 12.1995 10.1172 12.0303 10.3711L10.7217 12.3486H12.4404ZM17.9336 10.4395C18.6237 10.4395 19.1722 10.6331 19.5791 11.0205C19.9893 11.4079 20.1943 11.9385 20.1943 12.6123C20.1943 13.4098 19.9486 14.0234 19.457 14.4531C18.9655 14.8828 18.2624 15.0977 17.3477 15.0977C16.5534 15.0977 15.9121 14.9691 15.4238 14.7119V13.4082C15.681 13.5449 15.9805 13.6572 16.3223 13.7451C16.6641 13.8298 16.988 13.8721 17.2939 13.8721C18.2152 13.8721 18.6758 13.4945 18.6758 12.7393C18.6758 12.0199 18.1989 11.6602 17.2451 11.6602C17.0726 11.6602 16.8822 11.6781 16.6738 11.7139C16.4655 11.7464 16.2962 11.7822 16.166 11.8213L15.5654 11.499L15.834 7.86133H19.7061V9.14062H17.1572L17.0254 10.542L17.1963 10.5078C17.3949 10.4622 17.6406 10.4395 17.9336 10.4395ZM22.1865 10C22.1865 10.4134 22.2223 10.7227 22.2939 10.9277C22.3688 11.1296 22.4876 11.2305 22.6504 11.2305C22.9629 11.2305 23.1191 10.8203 23.1191 10C23.1191 9.1862 22.9629 8.7793 22.6504 8.7793C22.4876 8.7793 22.3688 8.88021 22.2939 9.08203C22.2223 9.2806 22.1865 9.58659 22.1865 10ZM24.3496 9.99023C24.3496 10.7389 24.2048 11.3021 23.915 11.6797C23.6253 12.054 23.2005 12.2412 22.6406 12.2412C22.1035 12.2412 21.6885 12.0492 21.3955 11.665C21.1025 11.2777 20.9561 10.7194 20.9561 9.99023C20.9561 8.5026 21.5176 7.75879 22.6406 7.75879C23.1908 7.75879 23.6123 7.95247 23.9053 8.33984C24.2015 8.72396 24.3496 9.27409 24.3496 9.99023ZM27.709 7.86133L23.749 15H22.5771L26.5371 7.86133H27.709ZM27.1865 12.8516C27.1865 13.265 27.2223 13.5742 27.2939 13.7793C27.3688 13.9811 27.4876 14.082 27.6504 14.082C27.9629 14.082 28.1191 13.6719 28.1191 12.8516C28.1191 12.0378 27.9629 11.6309 27.6504 11.6309C27.4876 11.6309 27.3688 11.7318 27.2939 11.9336C27.2223 12.1322 27.1865 12.4382 27.1865 12.8516ZM29.3496 12.8418C29.3496 13.5872 29.2048 14.1488 28.915 14.5264C28.6253 14.9007 28.2005 15.0879 27.6406 15.0879C27.1035 15.0879 26.6885 14.8958 26.3955 14.5117C26.1025 14.1243 25.9561 13.5677 25.9561 12.8418C25.9561 11.3542 26.5176 10.6104 27.6406 10.6104C28.1908 10.6104 28.6123 10.804 28.9053 11.1914C29.2015 11.5755 29.3496 12.1257 29.3496 12.8418Z" fill="white"/>
</svg>
