<svg width="335" height="56" viewBox="0 0 335 56" fill="none" xmlns="http://www.w3.org/2000/svg">
<path d="M0 12C0 5.37258 5.37258 0 12 0H323C329.627 0 335 5.37258 335 12V44C335 50.6274 329.627 56 323 56H12C5.37259 56 0 50.6274 0 44V12Z" fill="#FAF8F6"/>
<mask id="mask0_721_2585" style="mask-type:luminance" maskUnits="userSpaceOnUse" x="20" y="16" width="24" height="24">
<path fill-rule="evenodd" clip-rule="evenodd" d="M20 16.001H43.9986V39.8543H20V16.001Z" fill="white"/>
</mask>
<g mask="url(#mask0_721_2585)">
<path fill-rule="evenodd" clip-rule="evenodd" d="M44 28C44 21.3726 38.6274 16 32 16C25.3726 16 20 21.3726 20 28C20 33.9895 24.3882 38.954 30.125 39.8542V31.4688H27.0781V28H30.125V25.3562C30.125 22.3488 31.9165 20.6875 34.6576 20.6875C35.9705 20.6875 37.3438 20.9219 37.3438 20.9219V23.875H35.8306C34.3399 23.875 33.875 24.8 33.875 25.749V28H37.2031L36.6711 31.4688H33.875V39.8542C39.6118 38.954 44 33.9895 44 28Z" fill="#1778F2"/>
</g>
<path d="M135.003 22.328H141.899V24.104H137.019V26.872H140.667V28.664H137.019V33H135.003V22.328ZM146.665 32.296C146.462 32.5413 146.153 32.76 145.737 32.952C145.321 33.144 144.857 33.24 144.345 33.24C144.035 33.24 143.726 33.192 143.417 33.096C143.118 33 142.841 32.856 142.585 32.664C142.339 32.4613 142.137 32.2053 141.977 31.896C141.827 31.5867 141.753 31.224 141.753 30.808C141.753 30.3813 141.833 30.0027 141.993 29.672C142.153 29.3307 142.377 29.048 142.665 28.824C142.953 28.5893 143.299 28.4133 143.705 28.296C144.11 28.1787 144.558 28.12 145.049 28.12C145.198 28.12 145.363 28.1253 145.545 28.136C145.726 28.136 145.902 28.1413 146.073 28.152C146.265 28.1627 146.462 28.1733 146.665 28.184V28.008C146.665 27.6347 146.515 27.3413 146.217 27.128C145.918 26.9147 145.529 26.808 145.049 26.808C144.515 26.808 144.089 26.8773 143.769 27.016C143.449 27.1547 143.166 27.304 142.921 27.464L142.057 26.184C142.206 26.0773 142.377 25.9707 142.569 25.864C142.761 25.7467 142.985 25.6453 143.241 25.56C143.497 25.464 143.79 25.3893 144.121 25.336C144.462 25.272 144.857 25.24 145.305 25.24C145.785 25.24 146.217 25.3093 146.601 25.448C146.995 25.576 147.331 25.7627 147.609 26.008C147.886 26.2427 148.099 26.5307 148.249 26.872C148.398 27.2027 148.473 27.5653 148.473 27.96V33H146.713L146.665 32.296ZM146.665 29.608C146.473 29.5973 146.286 29.5867 146.105 29.576C145.955 29.5653 145.795 29.56 145.625 29.56C145.465 29.5493 145.326 29.544 145.209 29.544C144.601 29.544 144.174 29.6667 143.929 29.912C143.683 30.1467 143.561 30.4187 143.561 30.728C143.561 31.048 143.673 31.2987 143.897 31.48C144.131 31.6613 144.473 31.752 144.921 31.752C145.145 31.752 145.358 31.7147 145.561 31.64C145.774 31.5653 145.961 31.464 146.121 31.336C146.281 31.208 146.409 31.0587 146.505 30.888C146.611 30.7173 146.665 30.536 146.665 30.344V29.608ZM156.903 32.008C156.551 32.3813 156.135 32.68 155.655 32.904C155.175 33.128 154.615 33.24 153.975 33.24C153.335 33.24 152.765 33.144 152.263 32.952C151.762 32.76 151.341 32.488 150.999 32.136C150.658 31.784 150.397 31.3627 150.215 30.872C150.034 30.3813 149.943 29.8373 149.943 29.24C149.943 28.696 150.039 28.184 150.231 27.704C150.434 27.2133 150.711 26.7867 151.063 26.424C151.415 26.0613 151.837 25.7733 152.327 25.56C152.829 25.3467 153.378 25.24 153.975 25.24C154.583 25.24 155.138 25.352 155.639 25.576C156.141 25.7893 156.567 26.0827 156.919 26.456L155.719 27.672C155.506 27.4267 155.255 27.2347 154.967 27.096C154.679 26.9573 154.349 26.888 153.975 26.888C153.613 26.888 153.298 26.9573 153.031 27.096C152.765 27.224 152.541 27.3947 152.359 27.608C152.189 27.8213 152.061 28.072 151.975 28.36C151.89 28.648 151.847 28.9413 151.847 29.24C151.847 29.528 151.89 29.8107 151.975 30.088C152.061 30.3653 152.189 30.616 152.359 30.84C152.541 31.064 152.765 31.2453 153.031 31.384C153.298 31.5227 153.613 31.592 153.975 31.592C154.349 31.592 154.69 31.5227 154.999 31.384C155.309 31.2347 155.57 31.0373 155.783 30.792L156.903 32.008ZM164.992 31.912C164.96 31.944 164.869 32.0347 164.72 32.184C164.581 32.3227 164.373 32.472 164.096 32.632C163.829 32.792 163.482 32.936 163.056 33.064C162.64 33.192 162.138 33.256 161.552 33.256C160.954 33.256 160.41 33.1547 159.92 32.952C159.429 32.7493 159.008 32.472 158.656 32.12C158.314 31.7573 158.048 31.3253 157.856 30.824C157.674 30.3227 157.584 29.768 157.584 29.16C157.584 28.6053 157.674 28.0933 157.856 27.624C158.048 27.144 158.309 26.728 158.64 26.376C158.981 26.024 159.381 25.7467 159.84 25.544C160.309 25.3413 160.826 25.24 161.392 25.24C162.074 25.24 162.65 25.368 163.12 25.624C163.6 25.8693 163.984 26.1947 164.272 26.6C164.56 27.0053 164.768 27.464 164.896 27.976C165.024 28.488 165.088 29.0107 165.088 29.544V29.816H159.488C159.488 30.0933 159.546 30.344 159.664 30.568C159.792 30.792 159.952 30.984 160.144 31.144C160.346 31.304 160.57 31.4267 160.816 31.512C161.072 31.5973 161.322 31.64 161.568 31.64C161.93 31.64 162.245 31.608 162.512 31.544C162.789 31.4693 163.024 31.3893 163.216 31.304C163.408 31.208 163.562 31.112 163.68 31.016C163.808 30.9093 163.904 30.824 163.968 30.76L164.992 31.912ZM163.152 28.456C163.152 28.264 163.114 28.072 163.04 27.88C162.965 27.688 162.853 27.5173 162.704 27.368C162.565 27.208 162.384 27.08 162.16 26.984C161.936 26.8773 161.68 26.824 161.392 26.824C161.082 26.824 160.805 26.8773 160.56 26.984C160.325 27.08 160.128 27.208 159.968 27.368C159.808 27.5173 159.685 27.688 159.6 27.88C159.514 28.072 159.472 28.264 159.472 28.456H163.152ZM166.545 22.328H168.433V26.008C168.561 25.88 168.807 25.736 169.169 25.576C169.532 25.416 169.969 25.336 170.481 25.336C171.025 25.336 171.505 25.4373 171.921 25.64C172.348 25.8427 172.711 26.1147 173.009 26.456C173.308 26.7973 173.532 27.2027 173.681 27.672C173.841 28.1413 173.921 28.6373 173.921 29.16C173.921 29.7253 173.82 30.2587 173.617 30.76C173.425 31.2507 173.143 31.6827 172.769 32.056C172.407 32.4187 171.964 32.712 171.441 32.936C170.919 33.1493 170.332 33.256 169.681 33.256C169.031 33.256 168.428 33.2027 167.873 33.096C167.329 32.9893 166.887 32.8773 166.545 32.76V22.328ZM168.433 31.464C168.583 31.5173 168.737 31.56 168.897 31.592C169.057 31.6133 169.308 31.624 169.649 31.624C170.033 31.624 170.369 31.56 170.657 31.432C170.945 31.2933 171.191 31.112 171.393 30.888C171.596 30.664 171.745 30.408 171.841 30.12C171.948 29.8213 172.001 29.5173 172.001 29.208C172.001 28.92 171.964 28.6427 171.889 28.376C171.825 28.1093 171.719 27.8747 171.569 27.672C171.42 27.4587 171.228 27.2933 170.993 27.176C170.769 27.048 170.497 26.984 170.177 26.984C169.601 26.984 169.164 27.1333 168.865 27.432C168.577 27.72 168.433 28.12 168.433 28.632V31.464ZM175.068 29.24C175.068 28.696 175.164 28.184 175.356 27.704C175.559 27.2133 175.836 26.7867 176.188 26.424C176.54 26.0613 176.962 25.7733 177.452 25.56C177.954 25.3467 178.503 25.24 179.1 25.24C179.698 25.24 180.242 25.3467 180.732 25.56C181.234 25.7733 181.66 26.0613 182.012 26.424C182.364 26.7867 182.636 27.2133 182.828 27.704C183.031 28.184 183.132 28.696 183.132 29.24C183.132 29.784 183.031 30.3013 182.828 30.792C182.636 31.272 182.364 31.6987 182.012 32.072C181.66 32.4347 181.234 32.7227 180.732 32.936C180.242 33.1493 179.698 33.256 179.1 33.256C178.503 33.256 177.954 33.1493 177.452 32.936C176.962 32.7227 176.54 32.4347 176.188 32.072C175.836 31.6987 175.559 31.272 175.356 30.792C175.164 30.3013 175.068 29.784 175.068 29.24ZM179.1 31.624C179.463 31.624 179.778 31.5547 180.044 31.416C180.311 31.2667 180.53 31.0747 180.7 30.84C180.882 30.6053 181.015 30.3493 181.1 30.072C181.186 29.7947 181.228 29.5173 181.228 29.24C181.228 28.9733 181.186 28.7013 181.1 28.424C181.015 28.136 180.882 27.88 180.7 27.656C180.53 27.4213 180.311 27.2347 180.044 27.096C179.778 26.9467 179.463 26.872 179.1 26.872C178.738 26.872 178.423 26.9467 178.156 27.096C177.89 27.2347 177.666 27.4213 177.484 27.656C177.314 27.88 177.186 28.136 177.1 28.424C177.015 28.7013 176.972 28.9733 176.972 29.24C176.972 29.5173 177.015 29.7947 177.1 30.072C177.186 30.3493 177.314 30.6053 177.484 30.84C177.666 31.0747 177.89 31.2667 178.156 31.416C178.423 31.5547 178.738 31.624 179.1 31.624ZM184.287 29.24C184.287 28.696 184.383 28.184 184.575 27.704C184.778 27.2133 185.055 26.7867 185.407 26.424C185.759 26.0613 186.18 25.7733 186.671 25.56C187.172 25.3467 187.722 25.24 188.319 25.24C188.916 25.24 189.46 25.3467 189.951 25.56C190.452 25.7733 190.879 26.0613 191.231 26.424C191.583 26.7867 191.855 27.2133 192.047 27.704C192.25 28.184 192.351 28.696 192.351 29.24C192.351 29.784 192.25 30.3013 192.047 30.792C191.855 31.272 191.583 31.6987 191.231 32.072C190.879 32.4347 190.452 32.7227 189.951 32.936C189.46 33.1493 188.916 33.256 188.319 33.256C187.722 33.256 187.172 33.1493 186.671 32.936C186.18 32.7227 185.759 32.4347 185.407 32.072C185.055 31.6987 184.778 31.272 184.575 30.792C184.383 30.3013 184.287 29.784 184.287 29.24ZM188.319 31.624C188.682 31.624 188.996 31.5547 189.263 31.416C189.53 31.2667 189.748 31.0747 189.919 30.84C190.1 30.6053 190.234 30.3493 190.319 30.072C190.404 29.7947 190.447 29.5173 190.447 29.24C190.447 28.9733 190.404 28.7013 190.319 28.424C190.234 28.136 190.1 27.88 189.919 27.656C189.748 27.4213 189.53 27.2347 189.263 27.096C188.996 26.9467 188.682 26.872 188.319 26.872C187.956 26.872 187.642 26.9467 187.375 27.096C187.108 27.2347 186.884 27.4213 186.703 27.656C186.532 27.88 186.404 28.136 186.319 28.424C186.234 28.7013 186.191 28.9733 186.191 29.24C186.191 29.5173 186.234 29.7947 186.319 30.072C186.404 30.3493 186.532 30.6053 186.703 30.84C186.884 31.0747 187.108 31.2667 187.375 31.416C187.642 31.5547 187.956 31.624 188.319 31.624ZM193.858 22.328H195.746V28.152L198.45 25.496H200.674L197.858 28.264L200.994 33H198.738L196.562 29.544L195.746 30.344V33H193.858V22.328Z" fill="black"/>
</svg>
