<svg width="280" height="56" viewBox="0 0 280 56" fill="none" xmlns="http://www.w3.org/2000/svg">
<path d="M0 12C0 5.37258 5.37258 0 12 0H268C274.627 0 280 5.37258 280 12V44C280 50.6274 274.627 56 268 56H12C5.37259 56 0 50.6274 0 44V12Z" fill="#FAF8F6"/>
<mask id="mask0_721_2530" style="mask-type:luminance" maskUnits="userSpaceOnUse" x="20" y="16" width="24" height="24">
<path fill-rule="evenodd" clip-rule="evenodd" d="M20 16.001H43.9986V39.8543H20V16.001Z" fill="white"/>
</mask>
<g mask="url(#mask0_721_2530)">
<path fill-rule="evenodd" clip-rule="evenodd" d="M44 28C44 21.3726 38.6274 16 32 16C25.3726 16 20 21.3726 20 28C20 33.9895 24.3882 38.954 30.125 39.8542V31.4688H27.0781V28H30.125V25.3562C30.125 22.3488 31.9165 20.6875 34.6576 20.6875C35.9705 20.6875 37.3438 20.9219 37.3438 20.9219V23.875H35.8306C34.3399 23.875 33.875 24.8 33.875 25.749V28H37.2031L36.6711 31.4688H33.875V39.8542C39.6118 38.954 44 33.9895 44 28Z" fill="#1778F2"/>
</g>
<path d="M107.503 22.328H114.399V24.104H109.519V26.872H113.167V28.664H109.519V33H107.503V22.328ZM119.165 32.296C118.962 32.5413 118.653 32.76 118.237 32.952C117.821 33.144 117.357 33.24 116.845 33.24C116.535 33.24 116.226 33.192 115.917 33.096C115.618 33 115.341 32.856 115.085 32.664C114.839 32.4613 114.637 32.2053 114.477 31.896C114.327 31.5867 114.253 31.224 114.253 30.808C114.253 30.3813 114.333 30.0027 114.493 29.672C114.653 29.3307 114.877 29.048 115.165 28.824C115.453 28.5893 115.799 28.4133 116.205 28.296C116.61 28.1787 117.058 28.12 117.549 28.12C117.698 28.12 117.863 28.1253 118.045 28.136C118.226 28.136 118.402 28.1413 118.573 28.152C118.765 28.1627 118.962 28.1733 119.165 28.184V28.008C119.165 27.6347 119.015 27.3413 118.717 27.128C118.418 26.9147 118.029 26.808 117.549 26.808C117.015 26.808 116.589 26.8773 116.269 27.016C115.949 27.1547 115.666 27.304 115.421 27.464L114.557 26.184C114.706 26.0773 114.877 25.9707 115.069 25.864C115.261 25.7467 115.485 25.6453 115.741 25.56C115.997 25.464 116.29 25.3893 116.621 25.336C116.962 25.272 117.357 25.24 117.805 25.24C118.285 25.24 118.717 25.3093 119.101 25.448C119.495 25.576 119.831 25.7627 120.109 26.008C120.386 26.2427 120.599 26.5307 120.749 26.872C120.898 27.2027 120.973 27.5653 120.973 27.96V33H119.213L119.165 32.296ZM119.165 29.608C118.973 29.5973 118.786 29.5867 118.605 29.576C118.455 29.5653 118.295 29.56 118.125 29.56C117.965 29.5493 117.826 29.544 117.709 29.544C117.101 29.544 116.674 29.6667 116.429 29.912C116.183 30.1467 116.061 30.4187 116.061 30.728C116.061 31.048 116.173 31.2987 116.397 31.48C116.631 31.6613 116.973 31.752 117.421 31.752C117.645 31.752 117.858 31.7147 118.061 31.64C118.274 31.5653 118.461 31.464 118.621 31.336C118.781 31.208 118.909 31.0587 119.005 30.888C119.111 30.7173 119.165 30.536 119.165 30.344V29.608ZM129.403 32.008C129.051 32.3813 128.635 32.68 128.155 32.904C127.675 33.128 127.115 33.24 126.475 33.24C125.835 33.24 125.265 33.144 124.763 32.952C124.262 32.76 123.841 32.488 123.499 32.136C123.158 31.784 122.897 31.3627 122.715 30.872C122.534 30.3813 122.443 29.8373 122.443 29.24C122.443 28.696 122.539 28.184 122.731 27.704C122.934 27.2133 123.211 26.7867 123.563 26.424C123.915 26.0613 124.337 25.7733 124.827 25.56C125.329 25.3467 125.878 25.24 126.475 25.24C127.083 25.24 127.638 25.352 128.139 25.576C128.641 25.7893 129.067 26.0827 129.419 26.456L128.219 27.672C128.006 27.4267 127.755 27.2347 127.467 27.096C127.179 26.9573 126.849 26.888 126.475 26.888C126.113 26.888 125.798 26.9573 125.531 27.096C125.265 27.224 125.041 27.3947 124.859 27.608C124.689 27.8213 124.561 28.072 124.475 28.36C124.39 28.648 124.347 28.9413 124.347 29.24C124.347 29.528 124.39 29.8107 124.475 30.088C124.561 30.3653 124.689 30.616 124.859 30.84C125.041 31.064 125.265 31.2453 125.531 31.384C125.798 31.5227 126.113 31.592 126.475 31.592C126.849 31.592 127.19 31.5227 127.499 31.384C127.809 31.2347 128.07 31.0373 128.283 30.792L129.403 32.008ZM137.492 31.912C137.46 31.944 137.369 32.0347 137.22 32.184C137.081 32.3227 136.873 32.472 136.596 32.632C136.329 32.792 135.982 32.936 135.556 33.064C135.14 33.192 134.638 33.256 134.052 33.256C133.454 33.256 132.91 33.1547 132.42 32.952C131.929 32.7493 131.508 32.472 131.156 32.12C130.814 31.7573 130.548 31.3253 130.356 30.824C130.174 30.3227 130.084 29.768 130.084 29.16C130.084 28.6053 130.174 28.0933 130.356 27.624C130.548 27.144 130.809 26.728 131.14 26.376C131.481 26.024 131.881 25.7467 132.34 25.544C132.809 25.3413 133.326 25.24 133.892 25.24C134.574 25.24 135.15 25.368 135.62 25.624C136.1 25.8693 136.484 26.1947 136.772 26.6C137.06 27.0053 137.268 27.464 137.396 27.976C137.524 28.488 137.588 29.0107 137.588 29.544V29.816H131.988C131.988 30.0933 132.046 30.344 132.164 30.568C132.292 30.792 132.452 30.984 132.644 31.144C132.846 31.304 133.07 31.4267 133.316 31.512C133.572 31.5973 133.822 31.64 134.068 31.64C134.43 31.64 134.745 31.608 135.012 31.544C135.289 31.4693 135.524 31.3893 135.716 31.304C135.908 31.208 136.062 31.112 136.18 31.016C136.308 30.9093 136.404 30.824 136.468 30.76L137.492 31.912ZM135.652 28.456C135.652 28.264 135.614 28.072 135.54 27.88C135.465 27.688 135.353 27.5173 135.204 27.368C135.065 27.208 134.884 27.08 134.66 26.984C134.436 26.8773 134.18 26.824 133.892 26.824C133.582 26.824 133.305 26.8773 133.06 26.984C132.825 27.08 132.628 27.208 132.468 27.368C132.308 27.5173 132.185 27.688 132.1 27.88C132.014 28.072 131.972 28.264 131.972 28.456H135.652ZM139.045 22.328H140.933V26.008C141.061 25.88 141.307 25.736 141.669 25.576C142.032 25.416 142.469 25.336 142.981 25.336C143.525 25.336 144.005 25.4373 144.421 25.64C144.848 25.8427 145.211 26.1147 145.509 26.456C145.808 26.7973 146.032 27.2027 146.181 27.672C146.341 28.1413 146.421 28.6373 146.421 29.16C146.421 29.7253 146.32 30.2587 146.117 30.76C145.925 31.2507 145.643 31.6827 145.269 32.056C144.907 32.4187 144.464 32.712 143.941 32.936C143.419 33.1493 142.832 33.256 142.181 33.256C141.531 33.256 140.928 33.2027 140.373 33.096C139.829 32.9893 139.387 32.8773 139.045 32.76V22.328ZM140.933 31.464C141.083 31.5173 141.237 31.56 141.397 31.592C141.557 31.6133 141.808 31.624 142.149 31.624C142.533 31.624 142.869 31.56 143.157 31.432C143.445 31.2933 143.691 31.112 143.893 30.888C144.096 30.664 144.245 30.408 144.341 30.12C144.448 29.8213 144.501 29.5173 144.501 29.208C144.501 28.92 144.464 28.6427 144.389 28.376C144.325 28.1093 144.219 27.8747 144.069 27.672C143.92 27.4587 143.728 27.2933 143.493 27.176C143.269 27.048 142.997 26.984 142.677 26.984C142.101 26.984 141.664 27.1333 141.365 27.432C141.077 27.72 140.933 28.12 140.933 28.632V31.464ZM147.568 29.24C147.568 28.696 147.664 28.184 147.856 27.704C148.059 27.2133 148.336 26.7867 148.688 26.424C149.04 26.0613 149.462 25.7733 149.952 25.56C150.454 25.3467 151.003 25.24 151.6 25.24C152.198 25.24 152.742 25.3467 153.232 25.56C153.734 25.7733 154.16 26.0613 154.512 26.424C154.864 26.7867 155.136 27.2133 155.328 27.704C155.531 28.184 155.632 28.696 155.632 29.24C155.632 29.784 155.531 30.3013 155.328 30.792C155.136 31.272 154.864 31.6987 154.512 32.072C154.16 32.4347 153.734 32.7227 153.232 32.936C152.742 33.1493 152.198 33.256 151.6 33.256C151.003 33.256 150.454 33.1493 149.952 32.936C149.462 32.7227 149.04 32.4347 148.688 32.072C148.336 31.6987 148.059 31.272 147.856 30.792C147.664 30.3013 147.568 29.784 147.568 29.24ZM151.6 31.624C151.963 31.624 152.278 31.5547 152.544 31.416C152.811 31.2667 153.03 31.0747 153.2 30.84C153.382 30.6053 153.515 30.3493 153.6 30.072C153.686 29.7947 153.728 29.5173 153.728 29.24C153.728 28.9733 153.686 28.7013 153.6 28.424C153.515 28.136 153.382 27.88 153.2 27.656C153.03 27.4213 152.811 27.2347 152.544 27.096C152.278 26.9467 151.963 26.872 151.6 26.872C151.238 26.872 150.923 26.9467 150.656 27.096C150.39 27.2347 150.166 27.4213 149.984 27.656C149.814 27.88 149.686 28.136 149.6 28.424C149.515 28.7013 149.472 28.9733 149.472 29.24C149.472 29.5173 149.515 29.7947 149.6 30.072C149.686 30.3493 149.814 30.6053 149.984 30.84C150.166 31.0747 150.39 31.2667 150.656 31.416C150.923 31.5547 151.238 31.624 151.6 31.624ZM156.787 29.24C156.787 28.696 156.883 28.184 157.075 27.704C157.278 27.2133 157.555 26.7867 157.907 26.424C158.259 26.0613 158.68 25.7733 159.171 25.56C159.672 25.3467 160.222 25.24 160.819 25.24C161.416 25.24 161.96 25.3467 162.451 25.56C162.952 25.7733 163.379 26.0613 163.731 26.424C164.083 26.7867 164.355 27.2133 164.547 27.704C164.75 28.184 164.851 28.696 164.851 29.24C164.851 29.784 164.75 30.3013 164.547 30.792C164.355 31.272 164.083 31.6987 163.731 32.072C163.379 32.4347 162.952 32.7227 162.451 32.936C161.96 33.1493 161.416 33.256 160.819 33.256C160.222 33.256 159.672 33.1493 159.171 32.936C158.68 32.7227 158.259 32.4347 157.907 32.072C157.555 31.6987 157.278 31.272 157.075 30.792C156.883 30.3013 156.787 29.784 156.787 29.24ZM160.819 31.624C161.182 31.624 161.496 31.5547 161.763 31.416C162.03 31.2667 162.248 31.0747 162.419 30.84C162.6 30.6053 162.734 30.3493 162.819 30.072C162.904 29.7947 162.947 29.5173 162.947 29.24C162.947 28.9733 162.904 28.7013 162.819 28.424C162.734 28.136 162.6 27.88 162.419 27.656C162.248 27.4213 162.03 27.2347 161.763 27.096C161.496 26.9467 161.182 26.872 160.819 26.872C160.456 26.872 160.142 26.9467 159.875 27.096C159.608 27.2347 159.384 27.4213 159.203 27.656C159.032 27.88 158.904 28.136 158.819 28.424C158.734 28.7013 158.691 28.9733 158.691 29.24C158.691 29.5173 158.734 29.7947 158.819 30.072C158.904 30.3493 159.032 30.6053 159.203 30.84C159.384 31.0747 159.608 31.2667 159.875 31.416C160.142 31.5547 160.456 31.624 160.819 31.624ZM166.358 22.328H168.246V28.152L170.95 25.496H173.174L170.358 28.264L173.494 33H171.238L169.062 29.544L168.246 30.344V33H166.358V22.328Z" fill="black"/>
</svg>
