<svg width="95" height="22" viewBox="0 0 95 22" fill="none" xmlns="http://www.w3.org/2000/svg">
<path opacity="0.5" d="M34.5361 16H33.374V6.00586H38.9453V7.03809H34.5361V10.6953H38.6787V11.7275H34.5361V16ZM45.043 16L44.8174 14.9336H44.7627C44.389 15.403 44.0153 15.722 43.6416 15.8906C43.2725 16.0547 42.8099 16.1367 42.2539 16.1367C41.5111 16.1367 40.9277 15.9453 40.5039 15.5625C40.0846 15.1797 39.875 14.6351 39.875 13.9287C39.875 12.4157 41.085 11.6227 43.5049 11.5498L44.7764 11.5088V11.0439C44.7764 10.4561 44.6488 10.0231 44.3936 9.74512C44.1429 9.46257 43.7396 9.32129 43.1836 9.32129C42.5592 9.32129 41.8529 9.5127 41.0645 9.89551L40.7158 9.02734C41.085 8.82682 41.4883 8.6696 41.9258 8.55566C42.3678 8.44173 42.8099 8.38477 43.252 8.38477C44.1452 8.38477 44.806 8.58301 45.2344 8.97949C45.6673 9.37598 45.8838 10.0117 45.8838 10.8867V16H45.043ZM42.4795 15.2002C43.1859 15.2002 43.7396 15.0065 44.1406 14.6191C44.5462 14.2318 44.749 13.6895 44.749 12.9922V12.3154L43.6143 12.3633C42.7119 12.3952 42.0602 12.5365 41.6592 12.7871C41.2627 13.0332 41.0645 13.4183 41.0645 13.9424C41.0645 14.3525 41.1875 14.6647 41.4336 14.8789C41.6842 15.0931 42.0329 15.2002 42.4795 15.2002ZM51.2227 16.1367C50.138 16.1367 49.2972 15.804 48.7002 15.1387C48.1077 14.4688 47.8115 13.5231 47.8115 12.3018C47.8115 11.0485 48.1123 10.0801 48.7139 9.39648C49.32 8.71289 50.1813 8.37109 51.2979 8.37109C51.6579 8.37109 52.0179 8.40983 52.3779 8.4873C52.738 8.56478 53.0205 8.65592 53.2256 8.76074L52.877 9.72461C52.6263 9.62435 52.3529 9.54232 52.0566 9.47852C51.7604 9.41016 51.4984 9.37598 51.2705 9.37598C49.7484 9.37598 48.9873 10.3467 48.9873 12.2881C48.9873 13.2087 49.1719 13.915 49.541 14.4072C49.9147 14.8994 50.4661 15.1455 51.1953 15.1455C51.8197 15.1455 52.46 15.0111 53.1162 14.7422V15.7471C52.6149 16.0068 51.9837 16.1367 51.2227 16.1367ZM58.0654 16.1367C56.958 16.1367 56.083 15.7995 55.4404 15.125C54.8024 14.4505 54.4834 13.514 54.4834 12.3154C54.4834 11.1077 54.7796 10.1484 55.3721 9.4375C55.9691 8.72656 56.7689 8.37109 57.7715 8.37109C58.7103 8.37109 59.4531 8.68099 60 9.30078C60.5469 9.91602 60.8203 10.7295 60.8203 11.7412V12.459H55.6592C55.682 13.3385 55.903 14.0062 56.3223 14.4619C56.7461 14.9176 57.3408 15.1455 58.1064 15.1455C58.9131 15.1455 59.7106 14.9769 60.499 14.6396V15.6514C60.098 15.8245 59.7174 15.9476 59.3574 16.0205C59.002 16.098 58.5713 16.1367 58.0654 16.1367ZM57.7578 9.32129C57.1562 9.32129 56.6755 9.51725 56.3154 9.90918C55.96 10.3011 55.7503 10.8434 55.6865 11.5361H59.6035C59.6035 10.8206 59.444 10.2738 59.125 9.89551C58.806 9.5127 58.3503 9.32129 57.7578 9.32129ZM66.248 8.38477C67.2324 8.38477 67.9958 8.72201 68.5381 9.39648C69.085 10.0664 69.3584 11.0166 69.3584 12.2471C69.3584 13.4775 69.0827 14.4346 68.5312 15.1182C67.9844 15.7972 67.2233 16.1367 66.248 16.1367C65.7604 16.1367 65.3138 16.0479 64.9082 15.8701C64.5072 15.6878 64.1699 15.4098 63.8965 15.0361H63.8145L63.5752 16H62.7617V5.36328H63.8965V7.94727C63.8965 8.52604 63.8783 9.04557 63.8418 9.50586H63.8965C64.4251 8.75846 65.209 8.38477 66.248 8.38477ZM66.084 9.33496C65.3092 9.33496 64.751 9.55827 64.4092 10.0049C64.0674 10.4469 63.8965 11.1943 63.8965 12.2471C63.8965 13.2998 64.0719 14.054 64.4229 14.5098C64.7738 14.9609 65.3366 15.1865 66.1113 15.1865C66.8086 15.1865 67.3281 14.9336 67.6699 14.4277C68.0117 13.9173 68.1826 13.1859 68.1826 12.2334C68.1826 11.2581 68.0117 10.5312 67.6699 10.0527C67.3281 9.57422 66.7995 9.33496 66.084 9.33496ZM77.8145 12.2471C77.8145 13.4684 77.5068 14.4232 76.8916 15.1113C76.2764 15.7949 75.4264 16.1367 74.3418 16.1367C73.6719 16.1367 73.0771 15.9795 72.5576 15.665C72.0381 15.3506 71.637 14.8994 71.3545 14.3115C71.0719 13.7236 70.9307 13.0355 70.9307 12.2471C70.9307 11.0257 71.236 10.0755 71.8467 9.39648C72.4574 8.71289 73.305 8.37109 74.3896 8.37109C75.4378 8.37109 76.2695 8.71973 76.8848 9.41699C77.5046 10.1143 77.8145 11.0576 77.8145 12.2471ZM72.1064 12.2471C72.1064 13.2041 72.2979 13.9333 72.6807 14.4346C73.0635 14.9359 73.6263 15.1865 74.3691 15.1865C75.112 15.1865 75.6748 14.9382 76.0576 14.4414C76.445 13.9401 76.6387 13.2087 76.6387 12.2471C76.6387 11.2946 76.445 10.5723 76.0576 10.0801C75.6748 9.58333 75.1074 9.33496 74.3555 9.33496C73.6126 9.33496 73.0521 9.57878 72.6738 10.0664C72.2956 10.554 72.1064 11.2809 72.1064 12.2471ZM86.2773 12.2471C86.2773 13.4684 85.9697 14.4232 85.3545 15.1113C84.7393 15.7949 83.8893 16.1367 82.8047 16.1367C82.1348 16.1367 81.54 15.9795 81.0205 15.665C80.501 15.3506 80.0999 14.8994 79.8174 14.3115C79.5348 13.7236 79.3936 13.0355 79.3936 12.2471C79.3936 11.0257 79.6989 10.0755 80.3096 9.39648C80.9202 8.71289 81.7679 8.37109 82.8525 8.37109C83.9007 8.37109 84.7324 8.71973 85.3477 9.41699C85.9674 10.1143 86.2773 11.0576 86.2773 12.2471ZM80.5693 12.2471C80.5693 13.2041 80.7607 13.9333 81.1436 14.4346C81.5264 14.9359 82.0892 15.1865 82.832 15.1865C83.5749 15.1865 84.1377 14.9382 84.5205 14.4414C84.9079 13.9401 85.1016 13.2087 85.1016 12.2471C85.1016 11.2946 84.9079 10.5723 84.5205 10.0801C84.1377 9.58333 83.5703 9.33496 82.8184 9.33496C82.0755 9.33496 81.515 9.57878 81.1367 10.0664C80.7585 10.554 80.5693 11.2809 80.5693 12.2471ZM89.3945 12.165C89.5905 11.887 89.889 11.5225 90.29 11.0713L92.71 8.50781H94.0566L91.0215 11.7002L94.2686 16H92.8945L90.249 12.459L89.3945 13.1973V16H88.2734V5.36328H89.3945V11.0029C89.3945 11.2536 89.3763 11.641 89.3398 12.165H89.3945Z" fill="black"/>
<path d="M19.0339 0H2.96607C1.32498 0 0 1.32538 0 2.96697V19.0398C0 20.6746 1.32498 22 2.96607 22H10.889L10.9025 14.1352H8.85784C8.59554 14.1352 8.38031 13.9199 8.37359 13.6575L8.36686 11.1211C8.36686 10.852 8.58208 10.6367 8.85112 10.6367H10.889V8.18777C10.889 5.34862 12.6243 3.80122 15.1599 3.80122H17.2382C17.5072 3.80122 17.7224 4.01651 17.7224 4.28563V6.42508C17.7224 6.69419 17.5072 6.90948 17.2382 6.90948H15.9603C14.5815 6.90948 14.3124 7.56208 14.3124 8.52416V10.6434H17.339C17.6282 10.6434 17.8502 10.8924 17.8166 11.1817L17.5139 13.718C17.487 13.9602 17.2785 14.1419 17.0364 14.1419H14.3192V22H19.0339C20.6683 22 22 20.6746 22 19.033V2.96697C21.9933 1.32538 20.6683 0 19.0339 0Z" fill="#D4D3D1"/>
</svg>
