<svg width="335" height="56" viewBox="0 0 335 56" fill="none" xmlns="http://www.w3.org/2000/svg">
<path d="M0 12C0 5.37258 5.37258 0 12 0H323C329.627 0 335 5.37258 335 12V44C335 50.6274 329.627 56 323 56H12C5.37259 56 0 50.6274 0 44V12Z" fill="#FAF8F6"/>
<path d="M148.619 27.352H152.443V31.768C152.027 32.1627 151.477 32.5093 150.795 32.808C150.112 33.1067 149.237 33.256 148.171 33.256C147.296 33.256 146.512 33.112 145.819 32.824C145.136 32.536 144.555 32.1467 144.075 31.656C143.595 31.1547 143.227 30.568 142.971 29.896C142.715 29.224 142.587 28.4987 142.587 27.72C142.587 26.9413 142.72 26.2107 142.987 25.528C143.253 24.8453 143.627 24.248 144.107 23.736C144.597 23.224 145.179 22.8187 145.851 22.52C146.523 22.2213 147.264 22.072 148.075 22.072C148.597 22.072 149.077 22.1307 149.515 22.248C149.952 22.3547 150.347 22.504 150.699 22.696C151.061 22.888 151.381 23.1173 151.659 23.384C151.936 23.64 152.181 23.9173 152.395 24.216L150.971 25.48C150.629 24.9893 150.229 24.5947 149.771 24.296C149.323 23.9973 148.757 23.848 148.075 23.848C147.552 23.848 147.083 23.9547 146.667 24.168C146.251 24.3707 145.893 24.648 145.595 25C145.307 25.3413 145.083 25.7467 144.923 26.216C144.773 26.6747 144.699 27.16 144.699 27.672C144.699 28.248 144.789 28.7653 144.971 29.224C145.163 29.6827 145.419 30.0773 145.739 30.408C146.069 30.7387 146.448 30.9947 146.875 31.176C147.312 31.3467 147.771 31.432 148.251 31.432C149.232 31.432 149.989 31.1973 150.523 30.728V29.064H148.619V27.352ZM154.021 29.24C154.021 28.696 154.117 28.184 154.309 27.704C154.512 27.2133 154.789 26.7867 155.141 26.424C155.493 26.0613 155.915 25.7733 156.405 25.56C156.907 25.3467 157.456 25.24 158.053 25.24C158.651 25.24 159.195 25.3467 159.685 25.56C160.187 25.7733 160.613 26.0613 160.965 26.424C161.317 26.7867 161.589 27.2133 161.781 27.704C161.984 28.184 162.085 28.696 162.085 29.24C162.085 29.784 161.984 30.3013 161.781 30.792C161.589 31.272 161.317 31.6987 160.965 32.072C160.613 32.4347 160.187 32.7227 159.685 32.936C159.195 33.1493 158.651 33.256 158.053 33.256C157.456 33.256 156.907 33.1493 156.405 32.936C155.915 32.7227 155.493 32.4347 155.141 32.072C154.789 31.6987 154.512 31.272 154.309 30.792C154.117 30.3013 154.021 29.784 154.021 29.24ZM158.053 31.624C158.416 31.624 158.731 31.5547 158.997 31.416C159.264 31.2667 159.483 31.0747 159.653 30.84C159.835 30.6053 159.968 30.3493 160.053 30.072C160.139 29.7947 160.181 29.5173 160.181 29.24C160.181 28.9733 160.139 28.7013 160.053 28.424C159.968 28.136 159.835 27.88 159.653 27.656C159.483 27.4213 159.264 27.2347 158.997 27.096C158.731 26.9467 158.416 26.872 158.053 26.872C157.691 26.872 157.376 26.9467 157.109 27.096C156.843 27.2347 156.619 27.4213 156.437 27.656C156.267 27.88 156.139 28.136 156.053 28.424C155.968 28.7013 155.925 28.9733 155.925 29.24C155.925 29.5173 155.968 29.7947 156.053 30.072C156.139 30.3493 156.267 30.6053 156.437 30.84C156.619 31.0747 156.843 31.2667 157.109 31.416C157.376 31.5547 157.691 31.624 158.053 31.624ZM163.24 29.24C163.24 28.696 163.336 28.184 163.528 27.704C163.731 27.2133 164.008 26.7867 164.36 26.424C164.712 26.0613 165.133 25.7733 165.624 25.56C166.125 25.3467 166.675 25.24 167.272 25.24C167.869 25.24 168.413 25.3467 168.904 25.56C169.405 25.7733 169.832 26.0613 170.184 26.424C170.536 26.7867 170.808 27.2133 171 27.704C171.203 28.184 171.304 28.696 171.304 29.24C171.304 29.784 171.203 30.3013 171 30.792C170.808 31.272 170.536 31.6987 170.184 32.072C169.832 32.4347 169.405 32.7227 168.904 32.936C168.413 33.1493 167.869 33.256 167.272 33.256C166.675 33.256 166.125 33.1493 165.624 32.936C165.133 32.7227 164.712 32.4347 164.36 32.072C164.008 31.6987 163.731 31.272 163.528 30.792C163.336 30.3013 163.24 29.784 163.24 29.24ZM167.272 31.624C167.635 31.624 167.949 31.5547 168.216 31.416C168.483 31.2667 168.701 31.0747 168.872 30.84C169.053 30.6053 169.187 30.3493 169.272 30.072C169.357 29.7947 169.4 29.5173 169.4 29.24C169.4 28.9733 169.357 28.7013 169.272 28.424C169.187 28.136 169.053 27.88 168.872 27.656C168.701 27.4213 168.483 27.2347 168.216 27.096C167.949 26.9467 167.635 26.872 167.272 26.872C166.909 26.872 166.595 26.9467 166.328 27.096C166.061 27.2347 165.837 27.4213 165.656 27.656C165.485 27.88 165.357 28.136 165.272 28.424C165.187 28.7013 165.144 28.9733 165.144 29.24C165.144 29.5173 165.187 29.7947 165.272 30.072C165.357 30.3493 165.485 30.6053 165.656 30.84C165.837 31.0747 166.061 31.2667 166.328 31.416C166.595 31.5547 166.909 31.624 167.272 31.624ZM174.027 34.216C174.325 34.4187 174.645 34.5627 174.987 34.648C175.339 34.744 175.749 34.792 176.219 34.792C176.709 34.792 177.12 34.6427 177.451 34.344C177.781 34.0453 177.947 33.6293 177.947 33.096V32.28C177.691 32.4933 177.408 32.6693 177.099 32.808C176.8 32.936 176.4 33 175.899 33C175.355 33 174.869 32.9093 174.443 32.728C174.027 32.5467 173.669 32.296 173.371 31.976C173.072 31.6453 172.843 31.2613 172.683 30.824C172.533 30.376 172.459 29.8853 172.459 29.352C172.459 28.7973 172.555 28.2747 172.747 27.784C172.949 27.2933 173.232 26.8667 173.595 26.504C173.968 26.1413 174.416 25.8587 174.939 25.656C175.461 25.4427 176.048 25.336 176.699 25.336C177.349 25.336 177.947 25.3893 178.491 25.496C179.045 25.6027 179.493 25.7147 179.835 25.832V33.128C179.835 33.6507 179.744 34.1147 179.563 34.52C179.381 34.9253 179.131 35.2667 178.811 35.544C178.491 35.8213 178.112 36.0293 177.675 36.168C177.237 36.3173 176.763 36.392 176.251 36.392C175.856 36.392 175.504 36.3707 175.195 36.328C174.896 36.296 174.624 36.248 174.379 36.184C174.144 36.12 173.925 36.04 173.723 35.944C173.531 35.848 173.349 35.736 173.179 35.608L174.027 34.216ZM177.947 27.128C177.797 27.0747 177.643 27.0373 177.483 27.016C177.323 26.984 177.072 26.968 176.731 26.968C176.347 26.968 176.011 27.032 175.723 27.16C175.435 27.288 175.189 27.4587 174.987 27.672C174.784 27.8853 174.629 28.136 174.523 28.424C174.427 28.7013 174.379 28.9947 174.379 29.304C174.379 29.88 174.523 30.3653 174.811 30.76C175.099 31.1547 175.563 31.352 176.203 31.352C176.779 31.352 177.211 31.2293 177.499 30.984C177.797 30.7387 177.947 30.3493 177.947 29.816V27.128ZM181.686 22.328H183.574V33H181.686V22.328ZM192.492 31.912C192.46 31.944 192.369 32.0347 192.22 32.184C192.081 32.3227 191.873 32.472 191.596 32.632C191.329 32.792 190.982 32.936 190.556 33.064C190.14 33.192 189.638 33.256 189.052 33.256C188.454 33.256 187.91 33.1547 187.42 32.952C186.929 32.7493 186.508 32.472 186.156 32.12C185.814 31.7573 185.548 31.3253 185.356 30.824C185.174 30.3227 185.084 29.768 185.084 29.16C185.084 28.6053 185.174 28.0933 185.356 27.624C185.548 27.144 185.809 26.728 186.14 26.376C186.481 26.024 186.881 25.7467 187.34 25.544C187.809 25.3413 188.326 25.24 188.892 25.24C189.574 25.24 190.15 25.368 190.62 25.624C191.1 25.8693 191.484 26.1947 191.772 26.6C192.06 27.0053 192.268 27.464 192.396 27.976C192.524 28.488 192.588 29.0107 192.588 29.544V29.816H186.988C186.988 30.0933 187.046 30.344 187.164 30.568C187.292 30.792 187.452 30.984 187.644 31.144C187.846 31.304 188.07 31.4267 188.316 31.512C188.572 31.5973 188.822 31.64 189.068 31.64C189.43 31.64 189.745 31.608 190.012 31.544C190.289 31.4693 190.524 31.3893 190.716 31.304C190.908 31.208 191.062 31.112 191.18 31.016C191.308 30.9093 191.404 30.824 191.468 30.76L192.492 31.912ZM190.652 28.456C190.652 28.264 190.614 28.072 190.54 27.88C190.465 27.688 190.353 27.5173 190.204 27.368C190.065 27.208 189.884 27.08 189.66 26.984C189.436 26.8773 189.18 26.824 188.892 26.824C188.582 26.824 188.305 26.8773 188.06 26.984C187.825 27.08 187.628 27.208 187.468 27.368C187.308 27.5173 187.185 27.688 187.1 27.88C187.014 28.072 186.972 28.264 186.972 28.456H190.652Z" fill="black"/>
<mask id="mask0_721_2557" style="mask-type:luminance" maskUnits="userSpaceOnUse" x="21" y="17" width="22" height="22">
<path fill-rule="evenodd" clip-rule="evenodd" d="M21 17.001H42.9987V38.8665H21V17.001Z" fill="white"/>
</mask>
<g mask="url(#mask0_721_2557)">
<path fill-rule="evenodd" clip-rule="evenodd" d="M42.2628 28.2432C42.2628 27.4848 42.1947 26.7557 42.0683 26.0557H31.9961V30.1925H37.7516C37.5037 31.5293 36.7503 32.6619 35.6176 33.4202V36.1036H39.0739C41.0961 34.2418 42.2628 31.5001 42.2628 28.2432Z" fill="#4385F6"/>
<path fill-rule="evenodd" clip-rule="evenodd" d="M31.9984 38.6947C34.8859 38.6947 37.3067 37.7371 39.0761 36.1038L35.6199 33.4204C34.6622 34.0621 33.4372 34.4413 31.9984 34.4413C29.2129 34.4413 26.8553 32.56 26.0143 30.0322H22.4414V32.8031C24.2011 36.2982 27.8178 38.6947 31.9984 38.6947Z" fill="#34A855"/>
<path fill-rule="evenodd" clip-rule="evenodd" d="M26.0151 30.0325C25.8012 29.3908 25.6797 28.7054 25.6797 28.0005C25.6797 27.2957 25.8012 26.6103 26.0151 25.9686V23.1978H22.4422C21.7179 24.6415 21.3047 26.2748 21.3047 28.0005C21.3047 29.7262 21.7179 31.3596 22.4422 32.8033L26.0151 30.0325Z" fill="#FBBD06"/>
<path fill-rule="evenodd" clip-rule="evenodd" d="M31.9984 21.5591C33.5685 21.5591 34.9782 22.0987 36.0865 23.1584L39.1539 20.0911C37.3018 18.3654 34.881 17.3057 31.9984 17.3057C27.8178 17.3057 24.2011 19.7022 22.4414 23.1973L26.0143 25.9682C26.8553 23.4404 29.2129 21.5591 31.9984 21.5591Z" fill="#EA4235"/>
</g>
</svg>
