<svg width="280" height="56" viewBox="0 0 280 56" fill="none" xmlns="http://www.w3.org/2000/svg">
<path d="M0 12C0 5.37258 5.37258 0 12 0H268C274.627 0 280 5.37258 280 12V44C280 50.6274 274.627 56 268 56H12C5.37259 56 0 50.6274 0 44V12Z" fill="#FAF8F6"/>
<path d="M121.119 27.352H124.943V31.768C124.527 32.1627 123.977 32.5093 123.295 32.808C122.612 33.1067 121.737 33.256 120.671 33.256C119.796 33.256 119.012 33.112 118.319 32.824C117.636 32.536 117.055 32.1467 116.575 31.656C116.095 31.1547 115.727 30.568 115.471 29.896C115.215 29.224 115.087 28.4987 115.087 27.72C115.087 26.9413 115.22 26.2107 115.487 25.528C115.753 24.8453 116.127 24.248 116.607 23.736C117.097 23.224 117.679 22.8187 118.351 22.52C119.023 22.2213 119.764 22.072 120.575 22.072C121.097 22.072 121.577 22.1307 122.015 22.248C122.452 22.3547 122.847 22.504 123.199 22.696C123.561 22.888 123.881 23.1173 124.159 23.384C124.436 23.64 124.681 23.9173 124.895 24.216L123.471 25.48C123.129 24.9893 122.729 24.5947 122.271 24.296C121.823 23.9973 121.257 23.848 120.575 23.848C120.052 23.848 119.583 23.9547 119.167 24.168C118.751 24.3707 118.393 24.648 118.095 25C117.807 25.3413 117.583 25.7467 117.423 26.216C117.273 26.6747 117.199 27.16 117.199 27.672C117.199 28.248 117.289 28.7653 117.471 29.224C117.663 29.6827 117.919 30.0773 118.239 30.408C118.569 30.7387 118.948 30.9947 119.375 31.176C119.812 31.3467 120.271 31.432 120.751 31.432C121.732 31.432 122.489 31.1973 123.023 30.728V29.064H121.119V27.352ZM126.521 29.24C126.521 28.696 126.617 28.184 126.809 27.704C127.012 27.2133 127.289 26.7867 127.641 26.424C127.993 26.0613 128.415 25.7733 128.905 25.56C129.407 25.3467 129.956 25.24 130.553 25.24C131.151 25.24 131.695 25.3467 132.185 25.56C132.687 25.7733 133.113 26.0613 133.465 26.424C133.817 26.7867 134.089 27.2133 134.281 27.704C134.484 28.184 134.585 28.696 134.585 29.24C134.585 29.784 134.484 30.3013 134.281 30.792C134.089 31.272 133.817 31.6987 133.465 32.072C133.113 32.4347 132.687 32.7227 132.185 32.936C131.695 33.1493 131.151 33.256 130.553 33.256C129.956 33.256 129.407 33.1493 128.905 32.936C128.415 32.7227 127.993 32.4347 127.641 32.072C127.289 31.6987 127.012 31.272 126.809 30.792C126.617 30.3013 126.521 29.784 126.521 29.24ZM130.553 31.624C130.916 31.624 131.231 31.5547 131.497 31.416C131.764 31.2667 131.983 31.0747 132.153 30.84C132.335 30.6053 132.468 30.3493 132.553 30.072C132.639 29.7947 132.681 29.5173 132.681 29.24C132.681 28.9733 132.639 28.7013 132.553 28.424C132.468 28.136 132.335 27.88 132.153 27.656C131.983 27.4213 131.764 27.2347 131.497 27.096C131.231 26.9467 130.916 26.872 130.553 26.872C130.191 26.872 129.876 26.9467 129.609 27.096C129.343 27.2347 129.119 27.4213 128.937 27.656C128.767 27.88 128.639 28.136 128.553 28.424C128.468 28.7013 128.425 28.9733 128.425 29.24C128.425 29.5173 128.468 29.7947 128.553 30.072C128.639 30.3493 128.767 30.6053 128.937 30.84C129.119 31.0747 129.343 31.2667 129.609 31.416C129.876 31.5547 130.191 31.624 130.553 31.624ZM135.74 29.24C135.74 28.696 135.836 28.184 136.028 27.704C136.231 27.2133 136.508 26.7867 136.86 26.424C137.212 26.0613 137.633 25.7733 138.124 25.56C138.625 25.3467 139.175 25.24 139.772 25.24C140.369 25.24 140.913 25.3467 141.404 25.56C141.905 25.7733 142.332 26.0613 142.684 26.424C143.036 26.7867 143.308 27.2133 143.5 27.704C143.703 28.184 143.804 28.696 143.804 29.24C143.804 29.784 143.703 30.3013 143.5 30.792C143.308 31.272 143.036 31.6987 142.684 32.072C142.332 32.4347 141.905 32.7227 141.404 32.936C140.913 33.1493 140.369 33.256 139.772 33.256C139.175 33.256 138.625 33.1493 138.124 32.936C137.633 32.7227 137.212 32.4347 136.86 32.072C136.508 31.6987 136.231 31.272 136.028 30.792C135.836 30.3013 135.74 29.784 135.74 29.24ZM139.772 31.624C140.135 31.624 140.449 31.5547 140.716 31.416C140.983 31.2667 141.201 31.0747 141.372 30.84C141.553 30.6053 141.687 30.3493 141.772 30.072C141.857 29.7947 141.9 29.5173 141.9 29.24C141.9 28.9733 141.857 28.7013 141.772 28.424C141.687 28.136 141.553 27.88 141.372 27.656C141.201 27.4213 140.983 27.2347 140.716 27.096C140.449 26.9467 140.135 26.872 139.772 26.872C139.409 26.872 139.095 26.9467 138.828 27.096C138.561 27.2347 138.337 27.4213 138.156 27.656C137.985 27.88 137.857 28.136 137.772 28.424C137.687 28.7013 137.644 28.9733 137.644 29.24C137.644 29.5173 137.687 29.7947 137.772 30.072C137.857 30.3493 137.985 30.6053 138.156 30.84C138.337 31.0747 138.561 31.2667 138.828 31.416C139.095 31.5547 139.409 31.624 139.772 31.624ZM146.527 34.216C146.825 34.4187 147.145 34.5627 147.487 34.648C147.839 34.744 148.249 34.792 148.719 34.792C149.209 34.792 149.62 34.6427 149.951 34.344C150.281 34.0453 150.447 33.6293 150.447 33.096V32.28C150.191 32.4933 149.908 32.6693 149.599 32.808C149.3 32.936 148.9 33 148.399 33C147.855 33 147.369 32.9093 146.943 32.728C146.527 32.5467 146.169 32.296 145.871 31.976C145.572 31.6453 145.343 31.2613 145.183 30.824C145.033 30.376 144.959 29.8853 144.959 29.352C144.959 28.7973 145.055 28.2747 145.247 27.784C145.449 27.2933 145.732 26.8667 146.095 26.504C146.468 26.1413 146.916 25.8587 147.439 25.656C147.961 25.4427 148.548 25.336 149.199 25.336C149.849 25.336 150.447 25.3893 150.991 25.496C151.545 25.6027 151.993 25.7147 152.335 25.832V33.128C152.335 33.6507 152.244 34.1147 152.063 34.52C151.881 34.9253 151.631 35.2667 151.311 35.544C150.991 35.8213 150.612 36.0293 150.175 36.168C149.737 36.3173 149.263 36.392 148.751 36.392C148.356 36.392 148.004 36.3707 147.695 36.328C147.396 36.296 147.124 36.248 146.879 36.184C146.644 36.12 146.425 36.04 146.223 35.944C146.031 35.848 145.849 35.736 145.679 35.608L146.527 34.216ZM150.447 27.128C150.297 27.0747 150.143 27.0373 149.983 27.016C149.823 26.984 149.572 26.968 149.231 26.968C148.847 26.968 148.511 27.032 148.223 27.16C147.935 27.288 147.689 27.4587 147.487 27.672C147.284 27.8853 147.129 28.136 147.023 28.424C146.927 28.7013 146.879 28.9947 146.879 29.304C146.879 29.88 147.023 30.3653 147.311 30.76C147.599 31.1547 148.063 31.352 148.703 31.352C149.279 31.352 149.711 31.2293 149.999 30.984C150.297 30.7387 150.447 30.3493 150.447 29.816V27.128ZM154.186 22.328H156.074V33H154.186V22.328ZM164.992 31.912C164.96 31.944 164.869 32.0347 164.72 32.184C164.581 32.3227 164.373 32.472 164.096 32.632C163.829 32.792 163.482 32.936 163.056 33.064C162.64 33.192 162.138 33.256 161.552 33.256C160.954 33.256 160.41 33.1547 159.92 32.952C159.429 32.7493 159.008 32.472 158.656 32.12C158.314 31.7573 158.048 31.3253 157.856 30.824C157.674 30.3227 157.584 29.768 157.584 29.16C157.584 28.6053 157.674 28.0933 157.856 27.624C158.048 27.144 158.309 26.728 158.64 26.376C158.981 26.024 159.381 25.7467 159.84 25.544C160.309 25.3413 160.826 25.24 161.392 25.24C162.074 25.24 162.65 25.368 163.12 25.624C163.6 25.8693 163.984 26.1947 164.272 26.6C164.56 27.0053 164.768 27.464 164.896 27.976C165.024 28.488 165.088 29.0107 165.088 29.544V29.816H159.488C159.488 30.0933 159.546 30.344 159.664 30.568C159.792 30.792 159.952 30.984 160.144 31.144C160.346 31.304 160.57 31.4267 160.816 31.512C161.072 31.5973 161.322 31.64 161.568 31.64C161.93 31.64 162.245 31.608 162.512 31.544C162.789 31.4693 163.024 31.3893 163.216 31.304C163.408 31.208 163.562 31.112 163.68 31.016C163.808 30.9093 163.904 30.824 163.968 30.76L164.992 31.912ZM163.152 28.456C163.152 28.264 163.114 28.072 163.04 27.88C162.965 27.688 162.853 27.5173 162.704 27.368C162.565 27.208 162.384 27.08 162.16 26.984C161.936 26.8773 161.68 26.824 161.392 26.824C161.082 26.824 160.805 26.8773 160.56 26.984C160.325 27.08 160.128 27.208 159.968 27.368C159.808 27.5173 159.685 27.688 159.6 27.88C159.514 28.072 159.472 28.264 159.472 28.456H163.152Z" fill="black"/>
<mask id="mask0_721_2502" style="mask-type:luminance" maskUnits="userSpaceOnUse" x="21" y="17" width="22" height="22">
<path fill-rule="evenodd" clip-rule="evenodd" d="M21 17H42.9987V38.8655H21V17Z" fill="white"/>
</mask>
<g mask="url(#mask0_721_2502)">
<path fill-rule="evenodd" clip-rule="evenodd" d="M42.2628 28.0762C42.2628 27.3178 42.1947 26.5887 42.0683 25.8887H31.9961V30.0255H37.7516C37.5037 31.3623 36.7503 32.4949 35.6176 33.2533V35.9366H39.0739C41.0961 34.0748 42.2628 31.3331 42.2628 28.0762Z" fill="#4385F6"/>
<path fill-rule="evenodd" clip-rule="evenodd" d="M31.9984 38.5277C34.8859 38.5277 37.3067 37.5701 39.0761 35.9368L35.6199 33.2534C34.6622 33.8951 33.4372 34.2743 31.9984 34.2743C29.2129 34.2743 26.8553 32.393 26.0143 29.8652H22.4414V32.6361C24.2011 36.1312 27.8178 38.5277 31.9984 38.5277Z" fill="#34A855"/>
<path fill-rule="evenodd" clip-rule="evenodd" d="M26.0151 29.8655C25.8012 29.2238 25.6797 28.5384 25.6797 27.8335C25.6797 27.1287 25.8012 26.4433 26.0151 25.8016V23.0308H22.4422C21.7179 24.4745 21.3047 26.1078 21.3047 27.8335C21.3047 29.5592 21.7179 31.1926 22.4422 32.6363L26.0151 29.8655Z" fill="#FBBD06"/>
<path fill-rule="evenodd" clip-rule="evenodd" d="M31.9984 21.3921C33.5685 21.3921 34.9782 21.9317 36.0865 22.9914L39.1539 19.9241C37.3018 18.1984 34.881 17.1387 31.9984 17.1387C27.8178 17.1387 24.2011 19.5352 22.4414 23.0303L26.0143 25.8012C26.8553 23.2734 29.2129 21.3921 31.9984 21.3921Z" fill="#EA4235"/>
</g>
</svg>
