<svg width="320" height="51" viewBox="0 0 320 51" fill="none" xmlns="http://www.w3.org/2000/svg">
<path fill-rule="evenodd" clip-rule="evenodd" d="M39.5362 27.2489L41 25.7277L32.9275 17.311L41 8.89431L39.5362 7.37305L30 17.311L39.5362 27.2489Z" fill="black"/>
<path opacity="0.07" d="M0 50L320 50" stroke="black"/>
<path d="M128.392 8.66H130.992L136.052 22H133.252L132.092 18.62H127.132L125.972 22H123.332L128.392 8.66ZM131.372 16.54L129.612 11.36L127.832 16.54H131.372ZM145.484 20.76C145.044 21.2267 144.524 21.6 143.924 21.88C143.324 22.16 142.624 22.3 141.824 22.3C141.024 22.3 140.311 22.18 139.684 21.94C139.058 21.7 138.531 21.36 138.104 20.92C137.678 20.48 137.351 19.9533 137.124 19.34C136.898 18.7267 136.784 18.0467 136.784 17.3C136.784 16.62 136.904 15.98 137.144 15.38C137.398 14.7667 137.744 14.2333 138.184 13.78C138.624 13.3267 139.151 12.9667 139.764 12.7C140.391 12.4333 141.078 12.3 141.824 12.3C142.584 12.3 143.278 12.44 143.904 12.72C144.531 12.9867 145.064 13.3533 145.504 13.82L144.004 15.34C143.738 15.0333 143.424 14.7933 143.064 14.62C142.704 14.4467 142.291 14.36 141.824 14.36C141.371 14.36 140.978 14.4467 140.644 14.62C140.311 14.78 140.031 14.9933 139.804 15.26C139.591 15.5267 139.431 15.84 139.324 16.2C139.218 16.56 139.164 16.9267 139.164 17.3C139.164 17.66 139.218 18.0133 139.324 18.36C139.431 18.7067 139.591 19.02 139.804 19.3C140.031 19.58 140.311 19.8067 140.644 19.98C140.978 20.1533 141.371 20.24 141.824 20.24C142.291 20.24 142.718 20.1533 143.104 19.98C143.491 19.7933 143.818 19.5467 144.084 19.24L145.484 20.76ZM155.035 20.76C154.595 21.2267 154.075 21.6 153.475 21.88C152.875 22.16 152.175 22.3 151.375 22.3C150.575 22.3 149.862 22.18 149.235 21.94C148.609 21.7 148.082 21.36 147.655 20.92C147.229 20.48 146.902 19.9533 146.675 19.34C146.449 18.7267 146.335 18.0467 146.335 17.3C146.335 16.62 146.455 15.98 146.695 15.38C146.949 14.7667 147.295 14.2333 147.735 13.78C148.175 13.3267 148.702 12.9667 149.315 12.7C149.942 12.4333 150.629 12.3 151.375 12.3C152.135 12.3 152.829 12.44 153.455 12.72C154.082 12.9867 154.615 13.3533 155.055 13.82L153.555 15.34C153.289 15.0333 152.975 14.7933 152.615 14.62C152.255 14.4467 151.842 14.36 151.375 14.36C150.922 14.36 150.529 14.4467 150.195 14.62C149.862 14.78 149.582 14.9933 149.355 15.26C149.142 15.5267 148.982 15.84 148.875 16.2C148.769 16.56 148.715 16.9267 148.715 17.3C148.715 17.66 148.769 18.0133 148.875 18.36C148.982 18.7067 149.142 19.02 149.355 19.3C149.582 19.58 149.862 19.8067 150.195 19.98C150.529 20.1533 150.922 20.24 151.375 20.24C151.842 20.24 152.269 20.1533 152.655 19.98C153.042 19.7933 153.369 19.5467 153.635 19.24L155.035 20.76ZM155.886 17.3C155.886 16.62 156.006 15.98 156.246 15.38C156.499 14.7667 156.846 14.2333 157.286 13.78C157.726 13.3267 158.253 12.9667 158.866 12.7C159.493 12.4333 160.179 12.3 160.926 12.3C161.673 12.3 162.353 12.4333 162.966 12.7C163.593 12.9667 164.126 13.3267 164.566 13.78C165.006 14.2333 165.346 14.7667 165.586 15.38C165.839 15.98 165.966 16.62 165.966 17.3C165.966 17.98 165.839 18.6267 165.586 19.24C165.346 19.84 165.006 20.3733 164.566 20.84C164.126 21.2933 163.593 21.6533 162.966 21.92C162.353 22.1867 161.673 22.32 160.926 22.32C160.179 22.32 159.493 22.1867 158.866 21.92C158.253 21.6533 157.726 21.2933 157.286 20.84C156.846 20.3733 156.499 19.84 156.246 19.24C156.006 18.6267 155.886 17.98 155.886 17.3ZM160.926 20.28C161.379 20.28 161.773 20.1933 162.106 20.02C162.439 19.8333 162.713 19.5933 162.926 19.3C163.153 19.0067 163.319 18.6867 163.426 18.34C163.533 17.9933 163.586 17.6467 163.586 17.3C163.586 16.9667 163.533 16.6267 163.426 16.28C163.319 15.92 163.153 15.6 162.926 15.32C162.713 15.0267 162.439 14.7933 162.106 14.62C161.773 14.4333 161.379 14.34 160.926 14.34C160.473 14.34 160.079 14.4333 159.746 14.62C159.413 14.7933 159.133 15.0267 158.906 15.32C158.693 15.6 158.533 15.92 158.426 16.28C158.319 16.6267 158.266 16.9667 158.266 17.3C158.266 17.6467 158.319 17.9933 158.426 18.34C158.533 18.6867 158.693 19.0067 158.906 19.3C159.133 19.5933 159.413 19.8333 159.746 20.02C160.079 20.1933 160.473 20.28 160.926 20.28ZM167.809 12.62H170.169V18.3C170.169 18.9 170.329 19.3667 170.649 19.7C170.983 20.02 171.409 20.18 171.929 20.18C172.249 20.18 172.549 20.12 172.829 20C173.109 19.8667 173.349 19.6867 173.549 19.46C173.749 19.2333 173.903 18.9733 174.009 18.68C174.129 18.3733 174.189 18.0467 174.189 17.7V12.62H176.549V22H174.289L174.229 20.94C174.109 21.0733 173.963 21.2133 173.789 21.36C173.616 21.5067 173.416 21.6467 173.189 21.78C172.963 21.9 172.703 22 172.409 22.08C172.116 22.16 171.783 22.2 171.409 22.2C170.236 22.2 169.343 21.8533 168.729 21.16C168.116 20.4533 167.809 19.5067 167.809 18.32V12.62ZM178.865 12.62H181.125L181.185 13.68C181.305 13.5467 181.445 13.4067 181.605 13.26C181.778 13.1133 181.978 12.98 182.205 12.86C182.445 12.7267 182.712 12.62 183.005 12.54C183.298 12.46 183.632 12.42 184.005 12.42C185.178 12.42 186.072 12.7733 186.685 13.48C187.298 14.1733 187.605 15.1133 187.605 16.3V22H185.245V16.32C185.245 15.72 185.078 15.26 184.745 14.94C184.425 14.6067 184.005 14.44 183.485 14.44C183.165 14.44 182.865 14.5067 182.585 14.64C182.305 14.76 182.065 14.9333 181.865 15.16C181.665 15.3867 181.505 15.6533 181.385 15.96C181.278 16.2533 181.225 16.5733 181.225 16.92V22H178.865V12.62ZM190.681 14.54H189.081V12.62H190.681V9.58H193.041V12.62H195.561V14.54H193.041V18.64C193.041 19.1733 193.127 19.5867 193.301 19.88C193.487 20.16 193.781 20.3 194.181 20.3C194.554 20.3 194.847 20.2467 195.061 20.14C195.287 20.0333 195.501 19.9067 195.701 19.76L196.701 21.22C196.234 21.6067 195.774 21.88 195.321 22.04C194.867 22.2133 194.361 22.3 193.801 22.3C193.227 22.3 192.741 22.2133 192.341 22.04C191.941 21.88 191.614 21.6467 191.361 21.34C191.121 21.0333 190.947 20.6667 190.841 20.24C190.734 19.8 190.681 19.32 190.681 18.8V14.54Z" fill="black"/>
</svg>
