<svg width="206" height="65" viewBox="0 0 206 65" fill="none" xmlns="http://www.w3.org/2000/svg">
<path d="M0 12C0 5.37258 5.37258 0 12 0H194C200.627 0 206 5.37258 206 12V53C206 59.6274 200.627 65 194 65H12C5.37259 65 0 59.6274 0 53V12Z" fill="#FAF8F6"/>
<path d="M95.3985 31.94H100.179V37.46C99.6585 37.9533 98.9718 38.3867 98.1185 38.76C97.2652 39.1333 96.1718 39.32 94.8385 39.32C93.7452 39.32 92.7652 39.14 91.8985 38.78C91.0452 38.42 90.3185 37.9333 89.7185 37.32C89.1185 36.6933 88.6585 35.96 88.3385 35.12C88.0185 34.28 87.8585 33.3733 87.8585 32.4C87.8585 31.4267 88.0252 30.5133 88.3585 29.66C88.6918 28.8067 89.1585 28.06 89.7585 27.42C90.3718 26.78 91.0985 26.2733 91.9385 25.9C92.7785 25.5267 93.7052 25.34 94.7185 25.34C95.3718 25.34 95.9718 25.4133 96.5185 25.56C97.0652 25.6933 97.5585 25.88 97.9985 26.12C98.4518 26.36 98.8518 26.6467 99.1985 26.98C99.5452 27.3 99.8518 27.6467 100.119 28.02L98.3385 29.6C97.9118 28.9867 97.4118 28.4933 96.8385 28.12C96.2785 27.7467 95.5718 27.56 94.7185 27.56C94.0652 27.56 93.4785 27.6933 92.9585 27.96C92.4385 28.2133 91.9918 28.56 91.6185 29C91.2585 29.4267 90.9785 29.9333 90.7785 30.52C90.5918 31.0933 90.4985 31.7 90.4985 32.34C90.4985 33.06 90.6118 33.7067 90.8385 34.28C91.0785 34.8533 91.3985 35.3467 91.7985 35.76C92.2118 36.1733 92.6852 36.4933 93.2185 36.72C93.7652 36.9333 94.3385 37.04 94.9385 37.04C96.1652 37.04 97.1118 36.7467 97.7785 36.16V34.08H95.3985V31.94ZM102.152 34.3C102.152 33.62 102.272 32.98 102.512 32.38C102.765 31.7667 103.112 31.2333 103.552 30.78C103.992 30.3267 104.518 29.9667 105.132 29.7C105.758 29.4333 106.445 29.3 107.192 29.3C107.938 29.3 108.618 29.4333 109.232 29.7C109.858 29.9667 110.392 30.3267 110.832 30.78C111.272 31.2333 111.612 31.7667 111.852 32.38C112.105 32.98 112.232 33.62 112.232 34.3C112.232 34.98 112.105 35.6267 111.852 36.24C111.612 36.84 111.272 37.3733 110.832 37.84C110.392 38.2933 109.858 38.6533 109.232 38.92C108.618 39.1867 107.938 39.32 107.192 39.32C106.445 39.32 105.758 39.1867 105.132 38.92C104.518 38.6533 103.992 38.2933 103.552 37.84C103.112 37.3733 102.765 36.84 102.512 36.24C102.272 35.6267 102.152 34.98 102.152 34.3ZM107.192 37.28C107.645 37.28 108.038 37.1933 108.372 37.02C108.705 36.8333 108.978 36.5933 109.192 36.3C109.418 36.0067 109.585 35.6867 109.692 35.34C109.798 34.9933 109.852 34.6467 109.852 34.3C109.852 33.9667 109.798 33.6267 109.692 33.28C109.585 32.92 109.418 32.6 109.192 32.32C108.978 32.0267 108.705 31.7933 108.372 31.62C108.038 31.4333 107.645 31.34 107.192 31.34C106.738 31.34 106.345 31.4333 106.012 31.62C105.678 31.7933 105.398 32.0267 105.172 32.32C104.958 32.6 104.798 32.92 104.692 33.28C104.585 33.6267 104.532 33.9667 104.532 34.3C104.532 34.6467 104.585 34.9933 104.692 35.34C104.798 35.6867 104.958 36.0067 105.172 36.3C105.398 36.5933 105.678 36.8333 106.012 37.02C106.345 37.1933 106.738 37.28 107.192 37.28ZM113.675 34.3C113.675 33.62 113.795 32.98 114.035 32.38C114.288 31.7667 114.635 31.2333 115.075 30.78C115.515 30.3267 116.042 29.9667 116.655 29.7C117.282 29.4333 117.968 29.3 118.715 29.3C119.462 29.3 120.142 29.4333 120.755 29.7C121.382 29.9667 121.915 30.3267 122.355 30.78C122.795 31.2333 123.135 31.7667 123.375 32.38C123.628 32.98 123.755 33.62 123.755 34.3C123.755 34.98 123.628 35.6267 123.375 36.24C123.135 36.84 122.795 37.3733 122.355 37.84C121.915 38.2933 121.382 38.6533 120.755 38.92C120.142 39.1867 119.462 39.32 118.715 39.32C117.968 39.32 117.282 39.1867 116.655 38.92C116.042 38.6533 115.515 38.2933 115.075 37.84C114.635 37.3733 114.288 36.84 114.035 36.24C113.795 35.6267 113.675 34.98 113.675 34.3ZM118.715 37.28C119.168 37.28 119.562 37.1933 119.895 37.02C120.228 36.8333 120.502 36.5933 120.715 36.3C120.942 36.0067 121.108 35.6867 121.215 35.34C121.322 34.9933 121.375 34.6467 121.375 34.3C121.375 33.9667 121.322 33.6267 121.215 33.28C121.108 32.92 120.942 32.6 120.715 32.32C120.502 32.0267 120.228 31.7933 119.895 31.62C119.562 31.4333 119.168 31.34 118.715 31.34C118.262 31.34 117.868 31.4333 117.535 31.62C117.202 31.7933 116.922 32.0267 116.695 32.32C116.482 32.6 116.322 32.92 116.215 33.28C116.108 33.6267 116.055 33.9667 116.055 34.3C116.055 34.6467 116.108 34.9933 116.215 35.34C116.322 35.6867 116.482 36.0067 116.695 36.3C116.922 36.5933 117.202 36.8333 117.535 37.02C117.868 37.1933 118.262 37.28 118.715 37.28ZM127.159 40.52C127.532 40.7733 127.932 40.9533 128.359 41.06C128.799 41.18 129.312 41.24 129.899 41.24C130.512 41.24 131.025 41.0533 131.439 40.68C131.852 40.3067 132.059 39.7867 132.059 39.12V38.1C131.739 38.3667 131.385 38.5867 130.999 38.76C130.625 38.92 130.125 39 129.499 39C128.819 39 128.212 38.8867 127.679 38.66C127.159 38.4333 126.712 38.12 126.339 37.72C125.965 37.3067 125.679 36.8267 125.479 36.28C125.292 35.72 125.199 35.1067 125.199 34.44C125.199 33.7467 125.319 33.0933 125.559 32.48C125.812 31.8667 126.165 31.3333 126.619 30.88C127.085 30.4267 127.645 30.0733 128.299 29.82C128.952 29.5533 129.685 29.42 130.499 29.42C131.312 29.42 132.059 29.4867 132.739 29.62C133.432 29.7533 133.992 29.8933 134.419 30.04V39.16C134.419 39.8133 134.305 40.3933 134.079 40.9C133.852 41.4067 133.539 41.8333 133.139 42.18C132.739 42.5267 132.265 42.7867 131.719 42.96C131.172 43.1467 130.579 43.24 129.939 43.24C129.445 43.24 129.005 43.2133 128.619 43.16C128.245 43.12 127.905 43.06 127.599 42.98C127.305 42.9 127.032 42.8 126.779 42.68C126.539 42.56 126.312 42.42 126.099 42.26L127.159 40.52ZM132.059 31.66C131.872 31.5933 131.679 31.5467 131.479 31.52C131.279 31.48 130.965 31.46 130.539 31.46C130.059 31.46 129.639 31.54 129.279 31.7C128.919 31.86 128.612 32.0733 128.359 32.34C128.105 32.6067 127.912 32.92 127.779 33.28C127.659 33.6267 127.599 33.9933 127.599 34.38C127.599 35.1 127.779 35.7067 128.139 36.2C128.499 36.6933 129.079 36.94 129.879 36.94C130.599 36.94 131.139 36.7867 131.499 36.48C131.872 36.1733 132.059 35.6867 132.059 35.02V31.66ZM136.732 25.66H139.092V39H136.732V25.66ZM150.24 37.64C150.2 37.68 150.086 37.7933 149.9 37.98C149.726 38.1533 149.466 38.34 149.12 38.54C148.786 38.74 148.353 38.92 147.82 39.08C147.3 39.24 146.673 39.32 145.94 39.32C145.193 39.32 144.513 39.1933 143.9 38.94C143.286 38.6867 142.76 38.34 142.32 37.9C141.893 37.4467 141.56 36.9067 141.32 36.28C141.093 35.6533 140.98 34.96 140.98 34.2C140.98 33.5067 141.093 32.8667 141.32 32.28C141.56 31.68 141.886 31.16 142.3 30.72C142.726 30.28 143.226 29.9333 143.8 29.68C144.386 29.4267 145.033 29.3 145.74 29.3C146.593 29.3 147.313 29.46 147.9 29.78C148.5 30.0867 148.98 30.4933 149.34 31C149.7 31.5067 149.96 32.08 150.12 32.72C150.28 33.36 150.36 34.0133 150.36 34.68V35.02H143.36C143.36 35.3667 143.433 35.68 143.58 35.96C143.74 36.24 143.94 36.48 144.18 36.68C144.433 36.88 144.713 37.0333 145.02 37.14C145.34 37.2467 145.653 37.3 145.96 37.3C146.413 37.3 146.806 37.26 147.14 37.18C147.486 37.0867 147.78 36.9867 148.02 36.88C148.26 36.76 148.453 36.64 148.6 36.52C148.76 36.3867 148.88 36.28 148.96 36.2L150.24 37.64ZM147.94 33.32C147.94 33.08 147.893 32.84 147.8 32.6C147.706 32.36 147.566 32.1467 147.38 31.96C147.206 31.76 146.98 31.6 146.7 31.48C146.42 31.3467 146.1 31.28 145.74 31.28C145.353 31.28 145.006 31.3467 144.7 31.48C144.406 31.6 144.16 31.76 143.96 31.96C143.76 32.1467 143.606 32.36 143.5 32.6C143.393 32.84 143.34 33.08 143.34 33.32H147.94Z" fill="black"/>
<mask id="mask0_721_3360" style="mask-type:luminance" maskUnits="userSpaceOnUse" x="21" y="21" width="22" height="22">
<path fill-rule="evenodd" clip-rule="evenodd" d="M21 21.001H42.9987V42.8665H21V21.001Z" fill="white"/>
</mask>
<g mask="url(#mask0_721_3360)">
<path fill-rule="evenodd" clip-rule="evenodd" d="M42.2628 32.2432C42.2628 31.4848 42.1947 30.7557 42.0683 30.0557H31.9961V34.1925H37.7516C37.5037 35.5293 36.7503 36.6619 35.6176 37.4202V40.1036H39.0739C41.0961 38.2418 42.2628 35.5001 42.2628 32.2432Z" fill="#4385F6"/>
<path fill-rule="evenodd" clip-rule="evenodd" d="M31.9984 42.6947C34.8859 42.6947 37.3067 41.7371 39.0761 40.1038L35.6199 37.4204C34.6622 38.0621 33.4372 38.4413 31.9984 38.4413C29.2129 38.4413 26.8553 36.56 26.0143 34.0322H22.4414V36.8031C24.2011 40.2982 27.8178 42.6947 31.9984 42.6947Z" fill="#34A855"/>
<path fill-rule="evenodd" clip-rule="evenodd" d="M26.0151 34.0325C25.8012 33.3908 25.6797 32.7054 25.6797 32.0005C25.6797 31.2957 25.8012 30.6103 26.0151 29.9686V27.1978H22.4422C21.7179 28.6415 21.3047 30.2748 21.3047 32.0005C21.3047 33.7262 21.7179 35.3596 22.4422 36.8033L26.0151 34.0325Z" fill="#FBBD06"/>
<path fill-rule="evenodd" clip-rule="evenodd" d="M31.9984 25.5591C33.5685 25.5591 34.9782 26.0987 36.0865 27.1584L39.1539 24.0911C37.3018 22.3654 34.881 21.3057 31.9984 21.3057C27.8178 21.3057 24.2011 23.7022 22.4414 27.1973L26.0143 29.9682C26.8553 27.4404 29.2129 25.5591 31.9984 25.5591Z" fill="#EA4235"/>
</g>
</svg>
