<svg width="206" height="65" viewBox="0 0 206 65" fill="none" xmlns="http://www.w3.org/2000/svg">
<path d="M0 12C0 5.37258 5.37258 0 12 0H194C200.627 0 206 5.37258 206 12V53C206 59.6274 200.627 65 194 65H12C5.37259 65 0 59.6274 0 53V12Z" fill="#FAF8F6"/>
<path fill-rule="evenodd" clip-rule="evenodd" d="M35.7007 21.8384C36.5654 20.8011 36.9993 19.6804 36.9993 18.4801V18.4801C36.9993 18.3209 36.9919 18.1605 36.9743 18C36.372 18.0316 35.7315 18.2161 35.0544 18.5496C34.3758 18.8882 33.8162 19.3127 33.3762 19.8232C32.4949 20.8315 31.9987 22.0646 31.9987 23.2169C31.9987 23.3761 32.0088 23.5277 32.0262 23.6717C33.395 23.7841 34.6572 23.0716 35.7007 21.8384ZM40.3043 39.0232C40.7967 38.3136 41.2218 37.5418 41.5808 36.7033C41.7289 36.3478 41.8681 35.9774 42 35.5907C41.3918 35.333 40.8451 34.97 40.3556 34.5004C39.2754 33.4886 38.7258 32.2143 38.7097 30.6829C38.6921 28.7169 39.5758 27.1843 41.3624 26.0901C40.3644 24.6561 38.8636 23.8601 36.8659 23.6972C36.1287 23.6339 35.2288 23.7945 34.1625 24.1823C33.035 24.6006 32.3699 24.8103 32.1737 24.8103C31.9112 24.8103 31.3125 24.6309 30.38 24.2772C29.445 23.9246 28.6925 23.7452 28.1187 23.7452C27.0701 23.7628 26.0963 24.0383 25.1951 24.5791C24.2939 25.1198 23.5738 25.8564 23.0325 26.7901C22.3438 27.9526 22 29.3398 22 30.9482C22 32.3523 22.255 33.8026 22.7637 35.3004C23.2388 36.687 23.8451 37.9033 24.5826 38.9521C25.27 39.9343 25.8438 40.6276 26.3025 41.0321C27.0213 41.7076 27.7413 42.0291 28.4637 41.998C28.9387 41.9817 29.56 41.8172 30.3312 41.5017C31.1013 41.1876 31.8212 41.0321 32.4925 41.0321C33.1325 41.0321 33.8325 41.1876 34.5942 41.5017C35.3534 41.8172 36.0056 41.9728 36.5464 41.9728C37.2997 41.955 38.0032 41.6424 38.6598 41.0321C39.0834 40.6602 39.633 39.9906 40.3043 39.0232Z" fill="#0E0410"/>
<path d="M98.5448 25.66H101.145L106.205 39H103.405L102.245 35.62H97.2848L96.1248 39H93.4848L98.5448 25.66ZM101.525 33.54L99.7648 28.36L97.9848 33.54H101.525ZM107.474 29.62H109.754L109.814 30.68C109.934 30.5467 110.081 30.4067 110.254 30.26C110.441 30.1133 110.654 29.98 110.894 29.86C111.148 29.74 111.428 29.64 111.734 29.56C112.054 29.48 112.408 29.44 112.794 29.44C113.514 29.44 114.134 29.58 114.654 29.86C115.188 30.14 115.628 30.5133 115.974 30.98C116.321 31.4333 116.581 31.9533 116.754 32.54C116.928 33.1267 117.014 33.7333 117.014 34.36C117.014 35.0933 116.908 35.72 116.694 36.24C116.481 36.76 116.214 37.2133 115.894 37.6C115.361 38.24 114.774 38.6867 114.134 38.94C113.508 39.1933 112.861 39.32 112.194 39.32C111.888 39.32 111.621 39.3067 111.394 39.28C111.181 39.2533 110.981 39.2133 110.794 39.16C110.621 39.12 110.454 39.0667 110.294 39C110.148 38.9467 109.988 38.8867 109.814 38.82V43H107.474V29.62ZM109.814 36.7C110.281 37.0867 110.988 37.28 111.934 37.28C112.361 37.28 112.741 37.2 113.074 37.04C113.408 36.8667 113.688 36.6467 113.914 36.38C114.154 36.1 114.334 35.7867 114.454 35.44C114.574 35.0933 114.634 34.7333 114.634 34.36C114.634 33.96 114.588 33.5867 114.494 33.24C114.414 32.8933 114.274 32.5933 114.074 32.34C113.888 32.0733 113.641 31.8667 113.334 31.72C113.028 31.56 112.648 31.48 112.194 31.48C111.834 31.48 111.508 31.56 111.214 31.72C110.921 31.8667 110.668 32.06 110.454 32.3C110.254 32.54 110.094 32.8067 109.974 33.1C109.868 33.38 109.814 33.6533 109.814 33.92V36.7ZM118.9 29.62H121.18L121.24 30.68C121.36 30.5467 121.507 30.4067 121.68 30.26C121.867 30.1133 122.08 29.98 122.32 29.86C122.574 29.74 122.854 29.64 123.16 29.56C123.48 29.48 123.834 29.44 124.22 29.44C124.94 29.44 125.56 29.58 126.08 29.86C126.614 30.14 127.054 30.5133 127.4 30.98C127.747 31.4333 128.007 31.9533 128.18 32.54C128.354 33.1267 128.44 33.7333 128.44 34.36C128.44 35.0933 128.334 35.72 128.12 36.24C127.907 36.76 127.64 37.2133 127.32 37.6C126.787 38.24 126.2 38.6867 125.56 38.94C124.934 39.1933 124.287 39.32 123.62 39.32C123.314 39.32 123.047 39.3067 122.82 39.28C122.607 39.2533 122.407 39.2133 122.22 39.16C122.047 39.12 121.88 39.0667 121.72 39C121.574 38.9467 121.414 38.8867 121.24 38.82V43H118.9V29.62ZM121.24 36.7C121.707 37.0867 122.414 37.28 123.36 37.28C123.787 37.28 124.167 37.2 124.5 37.04C124.834 36.8667 125.114 36.6467 125.34 36.38C125.58 36.1 125.76 35.7867 125.88 35.44C126 35.0933 126.06 34.7333 126.06 34.36C126.06 33.96 126.014 33.5867 125.92 33.24C125.84 32.8933 125.7 32.5933 125.5 32.34C125.314 32.0733 125.067 31.8667 124.76 31.72C124.454 31.56 124.074 31.48 123.62 31.48C123.26 31.48 122.934 31.56 122.64 31.72C122.347 31.8667 122.094 32.06 121.88 32.3C121.68 32.54 121.52 32.8067 121.4 33.1C121.294 33.38 121.24 33.6533 121.24 33.92V36.7ZM130.326 25.66H132.686V39H130.326V25.66ZM143.834 37.64C143.794 37.68 143.68 37.7933 143.494 37.98C143.32 38.1533 143.06 38.34 142.714 38.54C142.38 38.74 141.947 38.92 141.414 39.08C140.894 39.24 140.267 39.32 139.534 39.32C138.787 39.32 138.107 39.1933 137.494 38.94C136.88 38.6867 136.354 38.34 135.914 37.9C135.487 37.4467 135.154 36.9067 134.914 36.28C134.687 35.6533 134.574 34.96 134.574 34.2C134.574 33.5067 134.687 32.8667 134.914 32.28C135.154 31.68 135.48 31.16 135.894 30.72C136.32 30.28 136.82 29.9333 137.394 29.68C137.98 29.4267 138.627 29.3 139.334 29.3C140.187 29.3 140.907 29.46 141.494 29.78C142.094 30.0867 142.574 30.4933 142.934 31C143.294 31.5067 143.554 32.08 143.714 32.72C143.874 33.36 143.954 34.0133 143.954 34.68V35.02H136.954C136.954 35.3667 137.027 35.68 137.174 35.96C137.334 36.24 137.534 36.48 137.774 36.68C138.027 36.88 138.307 37.0333 138.614 37.14C138.934 37.2467 139.247 37.3 139.554 37.3C140.007 37.3 140.4 37.26 140.734 37.18C141.08 37.0867 141.374 36.9867 141.614 36.88C141.854 36.76 142.047 36.64 142.194 36.52C142.354 36.3867 142.474 36.28 142.554 36.2L143.834 37.64ZM141.534 33.32C141.534 33.08 141.487 32.84 141.394 32.6C141.3 32.36 141.16 32.1467 140.974 31.96C140.8 31.76 140.574 31.6 140.294 31.48C140.014 31.3467 139.694 31.28 139.334 31.28C138.947 31.28 138.6 31.3467 138.294 31.48C138 31.6 137.754 31.76 137.554 31.96C137.354 32.1467 137.2 32.36 137.094 32.6C136.987 32.84 136.934 33.08 136.934 33.32H141.534Z" fill="black"/>
</svg>
