<svg width="375" height="51" viewBox="0 0 375 51" fill="none" xmlns="http://www.w3.org/2000/svg">
<path fill-rule="evenodd" clip-rule="evenodd" d="M39.5362 27.2489L41 25.7277L32.9275 17.311L41 8.89431L39.5362 7.37305L30 17.311L39.5362 27.2489Z" fill="black"/>
<path opacity="0.07" d="M0 50L375 50" stroke="black"/>
<path d="M155.392 8.66H157.992L163.052 22H160.252L159.092 18.62H154.132L152.972 22H150.332L155.392 8.66ZM158.372 16.54L156.612 11.36L154.832 16.54H158.372ZM172.484 20.76C172.044 21.2267 171.524 21.6 170.924 21.88C170.324 22.16 169.624 22.3 168.824 22.3C168.024 22.3 167.311 22.18 166.684 21.94C166.058 21.7 165.531 21.36 165.104 20.92C164.678 20.48 164.351 19.9533 164.124 19.34C163.898 18.7267 163.784 18.0467 163.784 17.3C163.784 16.62 163.904 15.98 164.144 15.38C164.398 14.7667 164.744 14.2333 165.184 13.78C165.624 13.3267 166.151 12.9667 166.764 12.7C167.391 12.4333 168.078 12.3 168.824 12.3C169.584 12.3 170.278 12.44 170.904 12.72C171.531 12.9867 172.064 13.3533 172.504 13.82L171.004 15.34C170.738 15.0333 170.424 14.7933 170.064 14.62C169.704 14.4467 169.291 14.36 168.824 14.36C168.371 14.36 167.978 14.4467 167.644 14.62C167.311 14.78 167.031 14.9933 166.804 15.26C166.591 15.5267 166.431 15.84 166.324 16.2C166.218 16.56 166.164 16.9267 166.164 17.3C166.164 17.66 166.218 18.0133 166.324 18.36C166.431 18.7067 166.591 19.02 166.804 19.3C167.031 19.58 167.311 19.8067 167.644 19.98C167.978 20.1533 168.371 20.24 168.824 20.24C169.291 20.24 169.718 20.1533 170.104 19.98C170.491 19.7933 170.818 19.5467 171.084 19.24L172.484 20.76ZM182.035 20.76C181.595 21.2267 181.075 21.6 180.475 21.88C179.875 22.16 179.175 22.3 178.375 22.3C177.575 22.3 176.862 22.18 176.235 21.94C175.609 21.7 175.082 21.36 174.655 20.92C174.229 20.48 173.902 19.9533 173.675 19.34C173.449 18.7267 173.335 18.0467 173.335 17.3C173.335 16.62 173.455 15.98 173.695 15.38C173.949 14.7667 174.295 14.2333 174.735 13.78C175.175 13.3267 175.702 12.9667 176.315 12.7C176.942 12.4333 177.629 12.3 178.375 12.3C179.135 12.3 179.829 12.44 180.455 12.72C181.082 12.9867 181.615 13.3533 182.055 13.82L180.555 15.34C180.289 15.0333 179.975 14.7933 179.615 14.62C179.255 14.4467 178.842 14.36 178.375 14.36C177.922 14.36 177.529 14.4467 177.195 14.62C176.862 14.78 176.582 14.9933 176.355 15.26C176.142 15.5267 175.982 15.84 175.875 16.2C175.769 16.56 175.715 16.9267 175.715 17.3C175.715 17.66 175.769 18.0133 175.875 18.36C175.982 18.7067 176.142 19.02 176.355 19.3C176.582 19.58 176.862 19.8067 177.195 19.98C177.529 20.1533 177.922 20.24 178.375 20.24C178.842 20.24 179.269 20.1533 179.655 19.98C180.042 19.7933 180.369 19.5467 180.635 19.24L182.035 20.76ZM182.886 17.3C182.886 16.62 183.006 15.98 183.246 15.38C183.499 14.7667 183.846 14.2333 184.286 13.78C184.726 13.3267 185.253 12.9667 185.866 12.7C186.493 12.4333 187.179 12.3 187.926 12.3C188.673 12.3 189.353 12.4333 189.966 12.7C190.593 12.9667 191.126 13.3267 191.566 13.78C192.006 14.2333 192.346 14.7667 192.586 15.38C192.839 15.98 192.966 16.62 192.966 17.3C192.966 17.98 192.839 18.6267 192.586 19.24C192.346 19.84 192.006 20.3733 191.566 20.84C191.126 21.2933 190.593 21.6533 189.966 21.92C189.353 22.1867 188.673 22.32 187.926 22.32C187.179 22.32 186.493 22.1867 185.866 21.92C185.253 21.6533 184.726 21.2933 184.286 20.84C183.846 20.3733 183.499 19.84 183.246 19.24C183.006 18.6267 182.886 17.98 182.886 17.3ZM187.926 20.28C188.379 20.28 188.773 20.1933 189.106 20.02C189.439 19.8333 189.713 19.5933 189.926 19.3C190.153 19.0067 190.319 18.6867 190.426 18.34C190.533 17.9933 190.586 17.6467 190.586 17.3C190.586 16.9667 190.533 16.6267 190.426 16.28C190.319 15.92 190.153 15.6 189.926 15.32C189.713 15.0267 189.439 14.7933 189.106 14.62C188.773 14.4333 188.379 14.34 187.926 14.34C187.473 14.34 187.079 14.4333 186.746 14.62C186.413 14.7933 186.133 15.0267 185.906 15.32C185.693 15.6 185.533 15.92 185.426 16.28C185.319 16.6267 185.266 16.9667 185.266 17.3C185.266 17.6467 185.319 17.9933 185.426 18.34C185.533 18.6867 185.693 19.0067 185.906 19.3C186.133 19.5933 186.413 19.8333 186.746 20.02C187.079 20.1933 187.473 20.28 187.926 20.28ZM194.809 12.62H197.169V18.3C197.169 18.9 197.329 19.3667 197.649 19.7C197.983 20.02 198.409 20.18 198.929 20.18C199.249 20.18 199.549 20.12 199.829 20C200.109 19.8667 200.349 19.6867 200.549 19.46C200.749 19.2333 200.903 18.9733 201.009 18.68C201.129 18.3733 201.189 18.0467 201.189 17.7V12.62H203.549V22H201.289L201.229 20.94C201.109 21.0733 200.963 21.2133 200.789 21.36C200.616 21.5067 200.416 21.6467 200.189 21.78C199.963 21.9 199.703 22 199.409 22.08C199.116 22.16 198.783 22.2 198.409 22.2C197.236 22.2 196.343 21.8533 195.729 21.16C195.116 20.4533 194.809 19.5067 194.809 18.32V12.62ZM205.865 12.62H208.125L208.185 13.68C208.305 13.5467 208.445 13.4067 208.605 13.26C208.778 13.1133 208.978 12.98 209.205 12.86C209.445 12.7267 209.712 12.62 210.005 12.54C210.298 12.46 210.632 12.42 211.005 12.42C212.178 12.42 213.072 12.7733 213.685 13.48C214.298 14.1733 214.605 15.1133 214.605 16.3V22H212.245V16.32C212.245 15.72 212.078 15.26 211.745 14.94C211.425 14.6067 211.005 14.44 210.485 14.44C210.165 14.44 209.865 14.5067 209.585 14.64C209.305 14.76 209.065 14.9333 208.865 15.16C208.665 15.3867 208.505 15.6533 208.385 15.96C208.278 16.2533 208.225 16.5733 208.225 16.92V22H205.865V12.62ZM217.681 14.54H216.081V12.62H217.681V9.58H220.041V12.62H222.561V14.54H220.041V18.64C220.041 19.1733 220.127 19.5867 220.301 19.88C220.487 20.16 220.781 20.3 221.181 20.3C221.554 20.3 221.847 20.2467 222.061 20.14C222.287 20.0333 222.501 19.9067 222.701 19.76L223.701 21.22C223.234 21.6067 222.774 21.88 222.321 22.04C221.867 22.2133 221.361 22.3 220.801 22.3C220.227 22.3 219.741 22.2133 219.341 22.04C218.941 21.88 218.614 21.6467 218.361 21.34C218.121 21.0333 217.947 20.6667 217.841 20.24C217.734 19.8 217.681 19.32 217.681 18.8V14.54Z" fill="black"/>
</svg>
