<svg width="206" height="65" viewBox="0 0 206 65" fill="none" xmlns="http://www.w3.org/2000/svg">
<path d="M0 12C0 5.37258 5.37258 0 12 0H194C200.627 0 206 5.37258 206 12V53C206 59.6274 200.627 65 194 65H12C5.37259 65 0 59.6274 0 53V12Z" fill="#FAF8F6"/>
<mask id="mask0_721_3388" style="mask-type:luminance" maskUnits="userSpaceOnUse" x="20" y="20" width="24" height="24">
<path fill-rule="evenodd" clip-rule="evenodd" d="M20 20.001H43.9986V43.8543H20V20.001Z" fill="white"/>
</mask>
<g mask="url(#mask0_721_3388)">
<path fill-rule="evenodd" clip-rule="evenodd" d="M44 32C44 25.3726 38.6274 20 32 20C25.3726 20 20 25.3726 20 32C20 37.9895 24.3882 42.954 30.125 43.8542V35.4688H27.0781V32H30.125V29.3562C30.125 26.3488 31.9165 24.6875 34.6576 24.6875C35.9705 24.6875 37.3438 24.9219 37.3438 24.9219V27.875H35.8306C34.3399 27.875 33.875 28.8 33.875 29.749V32H37.2031L36.6711 35.4688H33.875V43.8542C39.6118 42.954 44 37.9895 44 32Z" fill="#1778F2"/>
</g>
<path d="M78.3785 25.66H86.9985V27.88H80.8985V31.34H85.4585V33.58H80.8985V39H78.3785V25.66ZM92.9559 38.12C92.7025 38.4267 92.3159 38.7 91.7959 38.94C91.2759 39.18 90.6959 39.3 90.0559 39.3C89.6692 39.3 89.2825 39.24 88.8959 39.12C88.5225 39 88.1759 38.82 87.8559 38.58C87.5492 38.3267 87.2959 38.0067 87.0959 37.62C86.9092 37.2333 86.8159 36.78 86.8159 36.26C86.8159 35.7267 86.9159 35.2533 87.1159 34.84C87.3159 34.4133 87.5959 34.06 87.9559 33.78C88.3159 33.4867 88.7492 33.2667 89.2559 33.12C89.7625 32.9733 90.3225 32.9 90.9359 32.9C91.1225 32.9 91.3292 32.9067 91.5559 32.92C91.7825 32.92 92.0025 32.9267 92.2159 32.94C92.4559 32.9533 92.7025 32.9667 92.9559 32.98V32.76C92.9559 32.2933 92.7692 31.9267 92.3959 31.66C92.0225 31.3933 91.5359 31.26 90.9359 31.26C90.2692 31.26 89.7359 31.3467 89.3359 31.52C88.9359 31.6933 88.5825 31.88 88.2759 32.08L87.1959 30.48C87.3825 30.3467 87.5959 30.2133 87.8359 30.08C88.0759 29.9333 88.3559 29.8067 88.6759 29.7C88.9959 29.58 89.3625 29.4867 89.7759 29.42C90.2025 29.34 90.6959 29.3 91.2559 29.3C91.8559 29.3 92.3959 29.3867 92.8759 29.56C93.3692 29.72 93.7892 29.9533 94.1359 30.26C94.4825 30.5533 94.7492 30.9133 94.9359 31.34C95.1225 31.7533 95.2159 32.2067 95.2159 32.7V39H93.0159L92.9559 38.12ZM92.9559 34.76C92.7159 34.7467 92.4825 34.7333 92.2559 34.72C92.0692 34.7067 91.8692 34.7 91.6559 34.7C91.4559 34.6867 91.2825 34.68 91.1359 34.68C90.3759 34.68 89.8425 34.8333 89.5359 35.14C89.2292 35.4333 89.0759 35.7733 89.0759 36.16C89.0759 36.56 89.2159 36.8733 89.4959 37.1C89.7892 37.3267 90.2159 37.44 90.7759 37.44C91.0559 37.44 91.3225 37.3933 91.5759 37.3C91.8425 37.2067 92.0759 37.08 92.2759 36.92C92.4759 36.76 92.6359 36.5733 92.7559 36.36C92.8892 36.1467 92.9559 35.92 92.9559 35.68V34.76ZM105.754 37.76C105.314 38.2267 104.794 38.6 104.194 38.88C103.594 39.16 102.894 39.3 102.094 39.3C101.294 39.3 100.581 39.18 99.954 38.94C99.3273 38.7 98.8007 38.36 98.374 37.92C97.9473 37.48 97.6207 36.9533 97.394 36.34C97.1673 35.7267 97.054 35.0467 97.054 34.3C97.054 33.62 97.174 32.98 97.414 32.38C97.6673 31.7667 98.014 31.2333 98.454 30.78C98.894 30.3267 99.4207 29.9667 100.034 29.7C100.661 29.4333 101.347 29.3 102.094 29.3C102.854 29.3 103.547 29.44 104.174 29.72C104.801 29.9867 105.334 30.3533 105.774 30.82L104.274 32.34C104.007 32.0333 103.694 31.7933 103.334 31.62C102.974 31.4467 102.561 31.36 102.094 31.36C101.641 31.36 101.247 31.4467 100.914 31.62C100.581 31.78 100.301 31.9933 100.074 32.26C99.8607 32.5267 99.7007 32.84 99.594 33.2C99.4873 33.56 99.434 33.9267 99.434 34.3C99.434 34.66 99.4873 35.0133 99.594 35.36C99.7007 35.7067 99.8607 36.02 100.074 36.3C100.301 36.58 100.581 36.8067 100.914 36.98C101.247 37.1533 101.641 37.24 102.094 37.24C102.561 37.24 102.987 37.1533 103.374 36.98C103.761 36.7933 104.087 36.5467 104.354 36.24L105.754 37.76ZM115.865 37.64C115.825 37.68 115.711 37.7933 115.525 37.98C115.351 38.1533 115.091 38.34 114.745 38.54C114.411 38.74 113.978 38.92 113.445 39.08C112.925 39.24 112.298 39.32 111.565 39.32C110.818 39.32 110.138 39.1933 109.525 38.94C108.911 38.6867 108.385 38.34 107.945 37.9C107.518 37.4467 107.185 36.9067 106.945 36.28C106.718 35.6533 106.605 34.96 106.605 34.2C106.605 33.5067 106.718 32.8667 106.945 32.28C107.185 31.68 107.511 31.16 107.925 30.72C108.351 30.28 108.851 29.9333 109.425 29.68C110.011 29.4267 110.658 29.3 111.365 29.3C112.218 29.3 112.938 29.46 113.525 29.78C114.125 30.0867 114.605 30.4933 114.965 31C115.325 31.5067 115.585 32.08 115.745 32.72C115.905 33.36 115.985 34.0133 115.985 34.68V35.02H108.985C108.985 35.3667 109.058 35.68 109.205 35.96C109.365 36.24 109.565 36.48 109.805 36.68C110.058 36.88 110.338 37.0333 110.645 37.14C110.965 37.2467 111.278 37.3 111.585 37.3C112.038 37.3 112.431 37.26 112.765 37.18C113.111 37.0867 113.405 36.9867 113.645 36.88C113.885 36.76 114.078 36.64 114.225 36.52C114.385 36.3867 114.505 36.28 114.585 36.2L115.865 37.64ZM113.565 33.32C113.565 33.08 113.518 32.84 113.425 32.6C113.331 32.36 113.191 32.1467 113.005 31.96C112.831 31.76 112.605 31.6 112.325 31.48C112.045 31.3467 111.725 31.28 111.365 31.28C110.978 31.28 110.631 31.3467 110.325 31.48C110.031 31.6 109.785 31.76 109.585 31.96C109.385 32.1467 109.231 32.36 109.125 32.6C109.018 32.84 108.965 33.08 108.965 33.32H113.565ZM117.806 25.66H120.166V30.26C120.326 30.1 120.633 29.92 121.086 29.72C121.54 29.52 122.086 29.42 122.726 29.42C123.406 29.42 124.006 29.5467 124.526 29.8C125.06 30.0533 125.513 30.3933 125.886 30.82C126.26 31.2467 126.54 31.7533 126.726 32.34C126.926 32.9267 127.026 33.5467 127.026 34.2C127.026 34.9067 126.9 35.5733 126.646 36.2C126.406 36.8133 126.053 37.3533 125.586 37.82C125.133 38.2733 124.58 38.64 123.926 38.92C123.273 39.1867 122.54 39.32 121.726 39.32C120.913 39.32 120.16 39.2533 119.466 39.12C118.786 38.9867 118.233 38.8467 117.806 38.7V25.66ZM120.166 37.08C120.353 37.1467 120.546 37.2 120.746 37.24C120.946 37.2667 121.26 37.28 121.686 37.28C122.166 37.28 122.586 37.2 122.946 37.04C123.306 36.8667 123.613 36.64 123.866 36.36C124.12 36.08 124.306 35.76 124.426 35.4C124.56 35.0267 124.626 34.6467 124.626 34.26C124.626 33.9 124.58 33.5533 124.486 33.22C124.406 32.8867 124.273 32.5933 124.086 32.34C123.9 32.0733 123.66 31.8667 123.366 31.72C123.086 31.56 122.746 31.48 122.346 31.48C121.626 31.48 121.08 31.6667 120.706 32.04C120.346 32.4 120.166 32.9 120.166 33.54V37.08ZM128.46 34.3C128.46 33.62 128.58 32.98 128.82 32.38C129.074 31.7667 129.42 31.2333 129.86 30.78C130.3 30.3267 130.827 29.9667 131.44 29.7C132.067 29.4333 132.754 29.3 133.5 29.3C134.247 29.3 134.927 29.4333 135.54 29.7C136.167 29.9667 136.7 30.3267 137.14 30.78C137.58 31.2333 137.92 31.7667 138.16 32.38C138.414 32.98 138.54 33.62 138.54 34.3C138.54 34.98 138.414 35.6267 138.16 36.24C137.92 36.84 137.58 37.3733 137.14 37.84C136.7 38.2933 136.167 38.6533 135.54 38.92C134.927 39.1867 134.247 39.32 133.5 39.32C132.754 39.32 132.067 39.1867 131.44 38.92C130.827 38.6533 130.3 38.2933 129.86 37.84C129.42 37.3733 129.074 36.84 128.82 36.24C128.58 35.6267 128.46 34.98 128.46 34.3ZM133.5 37.28C133.954 37.28 134.347 37.1933 134.68 37.02C135.014 36.8333 135.287 36.5933 135.5 36.3C135.727 36.0067 135.894 35.6867 136 35.34C136.107 34.9933 136.16 34.6467 136.16 34.3C136.16 33.9667 136.107 33.6267 136 33.28C135.894 32.92 135.727 32.6 135.5 32.32C135.287 32.0267 135.014 31.7933 134.68 31.62C134.347 31.4333 133.954 31.34 133.5 31.34C133.047 31.34 132.654 31.4333 132.32 31.62C131.987 31.7933 131.707 32.0267 131.48 32.32C131.267 32.6 131.107 32.92 131 33.28C130.894 33.6267 130.84 33.9667 130.84 34.3C130.84 34.6467 130.894 34.9933 131 35.34C131.107 35.6867 131.267 36.0067 131.48 36.3C131.707 36.5933 131.987 36.8333 132.32 37.02C132.654 37.1933 133.047 37.28 133.5 37.28ZM139.984 34.3C139.984 33.62 140.104 32.98 140.344 32.38C140.597 31.7667 140.944 31.2333 141.384 30.78C141.824 30.3267 142.35 29.9667 142.964 29.7C143.59 29.4333 144.277 29.3 145.024 29.3C145.77 29.3 146.45 29.4333 147.064 29.7C147.69 29.9667 148.224 30.3267 148.664 30.78C149.104 31.2333 149.444 31.7667 149.684 32.38C149.937 32.98 150.064 33.62 150.064 34.3C150.064 34.98 149.937 35.6267 149.684 36.24C149.444 36.84 149.104 37.3733 148.664 37.84C148.224 38.2933 147.69 38.6533 147.064 38.92C146.45 39.1867 145.77 39.32 145.024 39.32C144.277 39.32 143.59 39.1867 142.964 38.92C142.35 38.6533 141.824 38.2933 141.384 37.84C140.944 37.3733 140.597 36.84 140.344 36.24C140.104 35.6267 139.984 34.98 139.984 34.3ZM145.024 37.28C145.477 37.28 145.87 37.1933 146.204 37.02C146.537 36.8333 146.81 36.5933 147.024 36.3C147.25 36.0067 147.417 35.6867 147.524 35.34C147.63 34.9933 147.684 34.6467 147.684 34.3C147.684 33.9667 147.63 33.6267 147.524 33.28C147.417 32.92 147.25 32.6 147.024 32.32C146.81 32.0267 146.537 31.7933 146.204 31.62C145.87 31.4333 145.477 31.34 145.024 31.34C144.57 31.34 144.177 31.4333 143.844 31.62C143.51 31.7933 143.23 32.0267 143.004 32.32C142.79 32.6 142.63 32.92 142.524 33.28C142.417 33.6267 142.364 33.9667 142.364 34.3C142.364 34.6467 142.417 34.9933 142.524 35.34C142.63 35.6867 142.79 36.0067 143.004 36.3C143.23 36.5933 143.51 36.8333 143.844 37.02C144.177 37.1933 144.57 37.28 145.024 37.28ZM151.947 25.66H154.307V32.94L157.687 29.62H160.467L156.947 33.08L160.867 39H158.047L155.327 34.68L154.307 35.68V39H151.947V25.66Z" fill="black"/>
</svg>
